<svg xmlns="http://www.w3.org/2000/svg" id="svg33543" version="1.1" viewBox="0 0 351 165"><metadata id="metadata33549"/><title id="title33500">images/basic-branching-2</title><desc id="desc33502">Created with Sketch.</desc><g id="03---Basic-Branching-1" transform="translate(-4,-3)" style="fill-rule:evenodd;fill:none"><g id="brown" transform="translate(8,69)"><rect id="Rectangle-1" width="89" height="33" rx="16.5" ry="16.5" style="fill-rule:evenodd;fill:#efefe7"/><text id="C6" font-size="12" font-weight="700" style="fill:#979797;font-family:'Source Code Pro';font-size:12px;font-weight:700;text-anchor:middle"><tspan id="tspan33505" x="44.5" y="21" style="fill:gray">C0</tspan></text></g><path id="Line" d="m106 84h35v1h-35v4l-9-4.5 9-4.5z" style="fill-rule:nonzero;fill:#8f8981"/><path id="Line-2" d="m233 86h35v1h-35v4l-9-4.5 9-4.5z" style="fill-rule:nonzero;fill:#8f8981"/><path id="Line-3" d="m306 60v-32h1v32h4l-4.5 9-4.5-9z" style="fill-rule:nonzero;fill:#8f8981"/><path id="Line-4" d="m307 111v35h-1v-35h-4l4.5-9 4.5 9z" style="fill-rule:nonzero;fill:#8f8981"/><g id="g33519" transform="translate(135,69)"><rect id="rect33513" width="89" height="33" rx="16.5" ry="16.5" style="fill-rule:evenodd;fill:#efefe7"/><text id="text33517" font-size="12" font-weight="700" style="fill:#979797;font-family:'Source Code Pro';font-size:12px;font-weight:700;text-anchor:middle"><tspan id="tspan33515" x="44.5" y="21" style="fill:gray">C1</tspan></text></g><g id="g33527" transform="translate(262,69)"><rect id="rect33521" width="89" height="33" rx="16.5" ry="16.5" style="fill-rule:evenodd;fill:#efefe7"/><text id="text33525" font-size="12" font-weight="700" style="fill:#979797;font-family:'Source Code Pro';font-size:12px;font-weight:700;text-anchor:middle"><tspan id="tspan33523" x="44.5" y="21" style="fill:gray">C2</tspan></text></g><g id="ref" transform="translate(262,7)"><rect id="Rectangle-2" width="106" height="33" transform="scale(.83962 1)" style="fill-rule:evenodd;fill:#f44d27"/><text id="master" font-size="12" font-weight="700" transform="translate(-8.4003 .316)" style="fill:#979797;font-family:'Source Code Pro';font-size:12px;font-weight:700;text-anchor:middle"><tspan id="tspan33530" x="53" y="20" style="fill:#f0f0f0">master</tspan></text></g><g id="g33540" transform="translate(263,131)"><rect id="rect33534" width="106" height="33" transform="matrix(.83962 0 0 1 -1 0)" style="fill-rule:evenodd;fill:#f44d27"/><text id="text33538" font-size="12" font-weight="700" transform="translate(-9.5623 .958)" style="fill:#979797;font-family:'Source Code Pro';font-size:12px;font-weight:700;text-anchor:middle"><tspan id="tspan33536" x="53" y="20" style="fill:#f0f0f0">iss53</tspan></text></g></g></svg>