<svg xmlns="http://www.w3.org/2000/svg" id="svg35993" version="1.1" viewBox="0 0 469 252"><metadata id="metadata35999"/><title id="title35915">images/branch-and-history</title><desc id="desc35917">Created with Sketch.</desc><g id="03---Branch-and-History" fill="none" fill-rule="evenodd"><path id="Line-4" fill="#8F8981" fill-rule="nonzero" d="m343 197v-38h1v38h4l-4.5 9-4.5-9h4z"/><g id="symref" transform="translate(300 206)"><rect id="Rectangle-2" width="86" height="33" fill="#00909A" fill-rule="evenodd"/><text id="master" fill="#979797" font-family="Source Code Pro" font-size="12" font-weight="700" text-anchor="middle"><tspan id="tspan35921" x="43" y="20" fill="#f0f0f0">Snapshot C</tspan></text></g><path id="Line-5" fill="#8F8981" fill-rule="nonzero" d="m198 197v-38h1v38h4l-4.5 9-4.5-9h4z"/><g id="g35932" transform="translate(155 206)"><rect id="rect35926" width="86" height="33" fill="#00909A" fill-rule="evenodd"/><text id="text35930" fill="#979797" font-family="Source Code Pro" font-size="12" font-weight="700" text-anchor="middle"><tspan id="tspan35928" x="43" y="20" fill="#f0f0f0">Snapshot B</tspan></text></g><path id="path35934" fill="#8F8981" fill-rule="nonzero" d="m53 197v-38h1v38h4l-4.5 9-4.5-9h4z"/><g id="g35942" transform="translate(10 206)"><rect id="rect35936" width="86" height="33" fill="#00909A" fill-rule="evenodd"/><text id="text35940" fill="#979797" font-family="Source Code Pro" font-size="12" font-weight="700" text-anchor="middle"><tspan id="tspan35938" x="43" y="20" fill="#f0f0f0">Snapshot A</tspan></text></g><g id="other" transform="translate(300 134)"><rect id="rect35944" width="86" height="33" fill="#EFEFE7" fill-rule="evenodd"/><text id="text35948" fill="#979797" font-family="Source Code Pro" font-size="12" font-weight="700" text-anchor="middle"><tspan id="tspan35946" x="43" y="21" fill="gray">f30ab</tspan></text></g><path id="Line-6" fill="#8F8981" fill-rule="nonzero" d="m406 63v-24h1v24h4l-4.5 9-4.5-9h4z"/><path id="Line-7" fill="#8F8981" fill-rule="nonzero" d="m383.28 125.87 12.031-21.054.86824.49614-12.031 21.054 3.473 1.9846-8.3723 5.5816.55816-10.047 3.473 1.9846z"/><path id="Line-8" fill="#8F8981" fill-rule="nonzero" d="m300.25 126.12-10.422-20.845.89443-.44721 10.422 20.845 3.5777-1.7889v10.062l-8.0498-6.0374 3.5777-1.7889z"/><g id="g35960" transform="translate(155 134)"><rect id="rect35954" width="86" height="33" fill="#EFEFE7" fill-rule="evenodd"/><text id="text35958" fill="#979797" font-family="Source Code Pro" font-size="12" font-weight="700" text-anchor="middle"><tspan id="tspan35956" x="43" y="21" fill="gray">34ac2</tspan></text></g><g id="g35968" transform="translate(10 134)"><rect id="rect35962" width="86" height="33" fill="#EFEFE7" fill-rule="evenodd"/><text id="text35966" fill="#979797" font-family="Source Code Pro" font-size="12" font-weight="700" text-anchor="middle"><tspan id="tspan35964" x="43" y="21" fill="gray">98ca9</tspan></text></g><path id="Line" fill="#8F8981" fill-rule="nonzero" d="m250 150h50v1h-50v4l-9-4.5 9-4.5v4z"/><path id="Line-2" fill="#8F8981" fill-rule="nonzero" d="m105 150h50v1h-50v4l-9-4.5 9-4.5v4z"/><g id="ref" transform="translate(353 72)"><rect id="rect35972" width="106" height="33" fill="#F44D27" fill-rule="evenodd"/><text id="text35976" fill="#979797" font-family="Source Code Pro" font-size="12" font-weight="700" text-anchor="middle"><tspan id="tspan35974" x="53" y="20" fill="#f0f0f0">master</tspan></text></g><g id="goldref" transform="translate(352 18)"><rect id="Rectangle-3" width="108" height="33" fill="#CD9F00" fill-rule="evenodd"/><text id="master-2" fill="#979797" font-family="Source Code Pro" font-size="12" font-weight="700" text-anchor="middle"><tspan id="tspan35980" x="54" y="20" fill="#f0f0f0">HEAD</tspan></text></g><g id="g35990" transform="translate(241 72)"><rect id="rect35984" width="106" height="33" fill="#F44D27" fill-rule="evenodd"/><text id="text35988" fill="#979797" font-family="Source Code Pro" font-size="12" font-weight="700" text-anchor="middle"><tspan id="tspan35986" x="53" y="20" fill="#f0f0f0">v1.0</tspan></text></g></g></svg>