<svg xmlns="http://www.w3.org/2000/svg" id="svg1684" version="1.1" viewBox="0 0 309 125.04"><metadata id="metadata1648"/><title id="title1650">images/centralized</title><desc id="desc1652">Created with Sketch.</desc><g id="g36231" transform="translate(-3,1)"><g id="g36207"><g id="g36160"><rect id="rect1662" width="80.243" height="33" transform="matrix(1.0717 0 0 1 113 87)" style="fill-rule:evenodd;fill:#f44d27"/><text id="master" font-size="12" font-weight="700" transform="translate(115.91 86.602)" style="fill-rule:evenodd;fill:#f0f0f0;font-family:'Source Code Pro';font-feature-settings:normal;font-size:12px;font-variant-caps:normal;font-variant-ligatures:normal;font-variant-numeric:normal;font-weight:700;text-align:center;text-anchor:middle"><tspan id="tspan1664" x="40.121" y="20" style="fill:#f0f0f0;font-family:'Source Code Pro';font-feature-settings:normal;font-size:12px;font-variant-caps:normal;font-variant-ligatures:normal;font-variant-numeric:normal;font-weight:700;text-align:center;text-anchor:middle">developer</tspan></text></g><g id="g36165"><rect id="rect1667" width="80.243" height="33" transform="matrix(1.0717 0 0 1 7 87)" style="fill-rule:evenodd;fill:#f44d27"/><text id="text1671" font-size="12" font-weight="700" transform="translate(9.9062 86.602)" style="fill-rule:evenodd;fill:#f0f0f0;font-family:'Source Code Pro';font-feature-settings:normal;font-size:12px;font-variant-caps:normal;font-variant-ligatures:normal;font-variant-numeric:normal;font-weight:700;text-align:center;text-anchor:middle"><tspan id="tspan1669" x="40.121" y="20" style="fill:#f0f0f0;font-family:'Source Code Pro';font-feature-settings:normal;font-size:12px;font-variant-caps:normal;font-variant-ligatures:normal;font-variant-numeric:normal;font-weight:700;text-align:center;text-anchor:middle">developer</tspan></text></g><g id="g36170"><rect id="rect1673" width="80.243" height="33" transform="matrix(1.1091 0 0 1 219 87.037)" style="fill-rule:evenodd;fill:#f44d27"/><text id="text1677" font-size="12" font-weight="700" transform="translate(223.41 86.639)" style="fill-rule:evenodd;fill:#f0f0f0;font-family:'Source Code Pro';font-feature-settings:normal;font-size:12px;font-variant-caps:normal;font-variant-ligatures:normal;font-variant-numeric:normal;font-weight:700;text-align:center;text-anchor:middle"><tspan id="tspan1675" x="40.121" y="20" style="fill:#f0f0f0;font-family:'Source Code Pro';font-feature-settings:normal;font-size:12px;font-variant-caps:normal;font-variant-ligatures:normal;font-variant-numeric:normal;font-weight:700;text-align:center;text-anchor:middle">developer</tspan></text></g></g><path id="path1682" d="m206.81 79.39-17.495-30.28-3.4635 2.0011-.60611-10.044 8.3989 5.5415-3.4635 2.0011 17.495 30.28 3.4635-2.0011.60611 10.044-8.3989-5.5415z" transform="rotate(.35664 202.85 2250.8)" style="fill:#8f8981"/><g id="g36178" transform="translate(13.5)"><path id="path1680" d="m142 78v-28h-4l4.5-9 4.5 9h-4v28h4l-4.5 9-4.5-9z" style="fill:#8f8981"/><g id="g36143" transform="translate(2.5)"><rect id="rect1654" width="110.58" height="38" transform="matrix(.95858 0 0 1 87 3)" style="fill-rule:evenodd;fill:#cd9f00"/><text id="text36135" x="93.426" y="-47.713" transform="translate(46.049 65.755)" xml:space="preserve" style="fill:#f0f0f0;font-family:'Source Code Pro';font-feature-settings:normal;font-size:12px;font-variant-caps:normal;font-variant-ligatures:normal;font-variant-numeric:normal;font-weight:700;letter-spacing:0;line-height:14px;text-align:center;text-anchor:middle;word-spacing:0"><tspan id="tspan36133" x="93.426" y="-47.713">shared</tspan><tspan id="tspan36137" x="93.426" y="-33.713">repository</tspan></text></g></g><path id="path1682-5" d="m206.81 79.39-17.495-30.28-3.4635 2.0011-.60611-10.044 8.3989 5.5415-3.4635 2.0011 17.495 30.28 3.4635-2.0011.60611 10.044-8.3989-5.5415z" transform="matrix(-.99998 .0062246 .0062246 .99998 297.93 -1.219)" style="fill:#8f8981"/></g></svg>