<svg xmlns="http://www.w3.org/2000/svg" xmlns:svg="http://www.w3.org/2000/svg" id="svg1880" version="1.1" viewBox="0 0 425 204"><metadata id="metadata1886"/><title id="title1802">images/clean</title><desc id="desc1804">Created with Sketch.</desc><g style="fill:none;fill-rule:evenodd" id="08---Smudge-and-Clean"><g id="Group" transform="translate(10,10)"><g id="g145"><g id="other" transform="translate(0,45)"><rect style="fill:#efefe7;fill-rule:evenodd" id="Rectangle-2" width="86" height="33" x="0" y="0"/><text style="font-weight:700;font-size:12px;font-family:'Source Code Pro';text-anchor:middle;fill:#979797" id="master" font-size="12" font-weight="700"><tspan style="fill:gray" id="tspan1807" x="43" y="21">fileA.txt</tspan></text></g><rect style="fill:#d8d8d8;stroke:#979797" id="Rectangle-10" width="109" height="142" x="138.5" y=".5"/><g id="goldref" transform="translate(300,45)"><rect style="fill:#cd9f00;fill-rule:evenodd" id="Rectangle-3" width="86" height="33" x="0" y="0"/><text style="font-weight:700;font-size:12px;font-family:'Source Code Pro';text-anchor:middle;fill:#979797" id="master-2" font-size="12" font-weight="700"><tspan style="fill:#f0f0f0" id="tspan1813" x="43" y="20">fileA.txt&apos;</tspan></text></g><g id="g1823" transform="translate(300,98)"><rect style="fill:#cd9f00;fill-rule:evenodd" id="rect1817" width="86" height="33" x="0" y="0"/><text style="font-weight:700;font-size:12px;font-family:'Source Code Pro';text-anchor:middle;fill:#979797" id="text1821" font-size="12" font-weight="700"><tspan style="fill:#f0f0f0" id="tspan1819" x="43" y="20">fileB.txt&apos;</tspan></text></g><g id="g1831" transform="translate(0,98)"><rect style="fill:#efefe7;fill-rule:evenodd" id="rect1825" width="86" height="33" x="0" y="0"/><text style="font-weight:700;font-size:12px;font-family:'Source Code Pro';text-anchor:middle;fill:#979797" id="text1829" font-size="12" font-weight="700"><tspan style="fill:gray" id="tspan1827" x="43" y="21">fileB.txt</tspan></text></g><g id="g1839" transform="translate(0,151)"><rect style="fill:#efefe7;fill-rule:evenodd" id="rect1833" width="86" height="33" x="0" y="0"/><text style="font-weight:700;font-size:12px;font-family:'Source Code Pro';text-anchor:middle;fill:#979797" id="text1837" font-size="12" font-weight="700"><tspan style="fill:gray" id="tspan1835" x="43" y="21">fileC.rb</tspan></text></g><g id="g1847" transform="translate(300,151)"><rect style="fill:#efefe7;fill-rule:evenodd" id="rect1841" width="86" height="33" x="0" y="0"/><text style="font-weight:700;font-size:12px;font-family:'Source Code Pro';text-anchor:middle;fill:#979797" id="text1845" font-size="12" font-weight="700"><tspan style="fill:gray" id="tspan1843" x="43" y="21">fileC.rb</tspan></text></g><text style="font-weight:700;font-size:12px;font-family:'Source Code Pro';text-anchor:middle;fill:#404040" id="Staging-Area-2" font-size="12" font-weight="700" transform="translate(-11.397)"><tspan style="fill:#404040" id="tspan1849" x="54.5" y="22">Staging Area</tspan></text><text style="font-weight:700;font-size:12px;font-family:'Source Code Pro';text-anchor:middle;fill:#404040" id="Working-Directory-2" font-size="12" font-weight="700" transform="translate(288.9)"><tspan style="fill:#404040" id="tspan1852" x="54.5" y="22">Working Directory</tspan></text><text style="font-weight:700;font-size:12px;font-family:'Source Code Pro';text-anchor:middle;fill:#404040" id="*.txt-Filter-2" font-size="12" font-weight="700" transform="translate(138.35)"><tspan style="fill:#404040" id="tspan1855" x="54.5" y="22">*.txt Filter</tspan></text><g id="ref" transform="translate(150,45)"><rect style="fill:#f44d27;fill-rule:evenodd" id="rect1858" width="86.187" height="33" x="0" y="0"/><text style="font-weight:700;font-size:12px;font-family:'Source Code Pro';text-anchor:middle;fill:#979797" id="text1862" font-size="12" font-weight="700"><tspan style="fill:#f0f0f0" id="tspan1860" x="43.093" y="20">smudge</tspan></text></g><g id="g1871" transform="translate(150,98)"><rect style="fill:#f44d27;fill-rule:evenodd" id="rect1865" width="86.187" height="33" x="0" y="0"/><text style="font-weight:700;font-size:12px;font-family:'Source Code Pro';text-anchor:middle;fill:#979797" id="text1869" font-size="12" font-weight="700"><tspan style="fill:#f0f0f0" id="tspan1867" x="43.093" y="20">clean</tspan></text></g><path style="fill:#8f8981;fill-rule:nonzero" id="Line-6" d="M 291,169 H 87 v -1 h 204 v -4 l 9,4.5 -9,4.5 z"/><path style="fill:#8f8981;fill-rule:nonzero" id="Line-7" d="m 96,115 h 54 v -1 H 96 v -4 l -9,4.5 9,4.5 z"/><path style="fill:#8f8981;fill-rule:nonzero" id="Line-8" d="m 291,115 h -55 v -1 h 55 v -4 l 9,4.5 -9,4.5 z" transform="matrix(-1,0,0,1,536,2.7)"/><path style="fill:#8f8981;fill-rule:nonzero" id="Line-9" d="m 94.92563,61.968 c 7.0598,0.40966 13.566,1.8194 18.723,4.552 6.9044,3.6585 10.749,9.38 10.749,17.577 0,11.618 4.9267,18.264 13.106,20.948 3.9129,1.2838 8.0431,1.5039 11.761,1.1136 0.34273,-0.036 0.64823,-0.0746 0.91288,-0.11334 0.16072,-0.0235 0.27333,-0.0421 0.33421,-0.0532 l 0.49189,-0.0897 -0.17936,-0.98378 -0.49189,0.0897 c -0.0496,0.009 -0.15072,0.0257 -0.29968,0.0475 -0.25147,0.0368 -0.54351,0.0737 -0.87246,0.10826 -3.5892,0.37676 -7.5861,0.16385 -11.344,-1.0693 -7.7731,-2.5504 -12.418,-8.8161 -12.418,-19.997 0,-8.5882 -4.0644,-14.637 -11.281,-18.461 -5.3218,-2.8199 -11.983,-4.2584 -19.199,-4.6705 l -0.0305,-4.0302 -8.9657,4.568 9.0338,4.4318 -0.03,-3.9675 z"/><path style="fill:#8f8981;fill-rule:nonzero" id="Line-10" d="m 290.01,106.96 c -11.928,-2.7066 -19.793,-9.6708 -19.793,-22.464 0,-9.966 -6.2552,-16.307 -16.763,-19.784 -3.6099,-1.1948 -7.4822,-1.9602 -11.37,-2.3799 -1.3885,-0.14986 -2.6896,-0.24512 -3.8725,-0.29644 -0.74985,-0.03253 -1.3205,-0.0425 -1.6812,-0.0406 l -0.0195,1.34e-4 -0.49997,0.0052 -0.0104,-0.99995 0.49997,-0.0052 0.0246,-1.74e-4 c 0.37648,-0.002 0.96325,0.0083 1.7299,0.04153 1.2035,0.05222 2.5258,0.14903 3.9364,0.30128 3.9536,0.42671 7.8934,1.2055 11.577,2.4247 10.875,3.5992 17.449,10.263 17.449,20.734 0,12.2 7.4474,18.833 18.909,21.464 l 0.4526,-3.9124 8.4232,5.5044 -9.4575,3.4359 0.46606,-4.0287 z" transform="matrix(-1,0,0,1,535,0)"/></g></g></g></svg>