<svg xmlns="http://www.w3.org/2000/svg" id="svg4093" version="1.1" viewBox="0 0 673 356"><metadata id="metadata4099"/><title id="title3937">images/data-model-4</title><desc id="desc3939">Created with Sketch.</desc><g id="Page-89" fill="none" fill-rule="evenodd"><path id="Line-2" fill="#8F8981" fill-rule="nonzero" d="m346 60h-72v-1h72v-4l9 4.5-9 4.5v-4z"/><path id="Line-6" fill="#8F8981" fill-rule="nonzero" d="m525 293h-81v-1h81v-4l9 4.5-9 4.5v-4z"/><path id="Line-10" d="m641 209h8.1247v-149h-205.12v-1h206.12v151h-9.1247v4l-9-4.5 9-4.5z" transform="translate(-.1)" style="fill-rule:nonzero;fill:#8f8981"/><path id="Line-11" fill="#8F8981" fill-rule="nonzero" d="m433.1 320.3 21.627 25.157h207.43v-327.45h-203.03l-31.906 36.561-.75344-.65751 32.205-36.904h204.48v329.45h-208.89l-21.926-25.505-3.0332 2.6076-2.4548-9.7583 9.2795 3.8911-3.0332 2.6076z"/><path id="Line-7" fill="#8F8981" fill-rule="nonzero" d="m526.21 207.54-82.337-24.701.28735-.95783 82.337 24.701 1.1494-3.8313 7.3274 6.8963-9.9135 1.7241 1.1494-3.8313z"/><path id="Line-9" fill="#8F8981" fill-rule="nonzero" d="m525.69 115.11-81.861-41.39.45122-.89241 81.861 41.39 1.8049-3.5697 6.0012 8.0768-10.062-.045122 1.8049-3.5697z"/><path id="Line-8" fill="#8F8981" fill-rule="nonzero" d="m525.45 144.28-81.298 22.837-.27043-.96274 81.298-22.837-1.0817-3.851 9.8816 1.8984-7.4477 6.7662-1.0817-3.851z"/><path id="Line-4" fill="#8F8981" fill-rule="nonzero" d="m255 143v-84h1v84h4l-4.5 9-4.5-9h4z"/><path id="Line-5" fill="#8F8981" fill-rule="nonzero" d="m255 259v-84h1v84h4l-4.5 9-4.5-9h4z"/><g id="brown" transform="translate(535 109)"><rect id="Rectangle-1" width="97" height="46" fill="#EFEFE7" rx="10"/><text id="&quot;version-2&quot;" font-size="12" font-weight="700" transform="translate(-.0083438 -1.542)" style="fill:#979797;font-family:'Source Code Pro';font-size:12px;font-weight:700;text-anchor:middle"><tspan id="tspan3951" x="48.5" y="29" style="fill:gray">&quot;version 2&quot;</tspan></text><text id="1f7a7a" font-size="12" font-weight="700" transform="translate(-43.069 -2.2936)" style="fill:#979797;font-family:'Source Code Pro';font-feature-settings:normal;font-size:8px;font-variant-caps:normal;font-variant-ligatures:normal;font-variant-numeric:normal;font-weight:500"><tspan id="tspan3954" x="48.5" y="12" style="fill:gray;font-family:'Source Code Pro';font-feature-settings:normal;font-size:8px;font-variant-caps:normal;font-variant-ligatures:normal;font-variant-numeric:normal;font-weight:500">1f7a7a</tspan></text></g><g id="brown-4" transform="translate(535 187)"><rect id="rect3958" width="97" height="46" fill="#EFEFE7" rx="10"/><text id="&quot;new-file&quot;" font-size="12" font-weight="700" transform="translate(-.0083438 -1.542)" style="fill:#979797;font-family:'Source Code Pro';font-size:12px;font-weight:700;text-anchor:middle"><tspan id="tspan3960" x="48.5" y="29" style="fill:gray">&quot;new file&quot;</tspan></text><text id="fa49b0" font-size="12" font-weight="700" transform="translate(-43.167 -2.293)" style="fill:#979797;font-family:'Source Code Pro';font-feature-settings:normal;font-size:8px;font-variant-caps:normal;font-variant-ligatures:normal;font-variant-numeric:normal;font-weight:500"><tspan id="tspan3963" x="48.5" y="12" style="fill:gray;font-family:'Source Code Pro';font-feature-settings:normal;font-size:8px;font-variant-caps:normal;font-variant-ligatures:normal;font-variant-numeric:normal;font-weight:500">fa49b0</tspan></text></g><g id="brown-5" transform="translate(534.98 268.03)"><rect id="rect3967" width="97" height="46" rx="10" ry="10" style="fill:#efefe7"/><text id="&quot;version-1&quot;" font-size="12" font-weight="700" transform="translate(-.0083438 -1.542)" style="fill:#979797;font-family:'Source Code Pro';font-size:12px;font-weight:700;text-anchor:middle"><tspan id="tspan3969" x="48.5" y="29" style="fill:gray">&quot;version 1&quot;</tspan></text><text id="83baae" font-size="12" font-weight="700" transform="translate(-42.869 -2.2933)" style="fill:#979797;font-family:'Source Code Pro';font-feature-settings:normal;font-size:8px;font-variant-caps:normal;font-variant-ligatures:normal;font-variant-numeric:normal;font-weight:500"><tspan id="tspan3972" x="48.5" y="12" style="fill:gray;font-family:'Source Code Pro';font-feature-settings:normal;font-size:8px;font-variant-caps:normal;font-variant-ligatures:normal;font-variant-numeric:normal;font-weight:500">83baae</tspan></text></g><g id="Rectangle-6-+-simplegit.rb-2" transform="translate(452 285)"><rect id="Rectangle-6" width="65" height="15" fill="#FFF"/><text id="test.txt" fill="#979797" font-family="Source Code Pro" font-size="12" font-weight="700" text-anchor="middle" style="fill:#404040"><tspan id="tspan3977" x="32.5" y="11" fill="gray" style="fill:#404040">test.txt</tspan></text></g><g id="Rectangle-6-+-simplegit.rb-5" transform="translate(452 147)"><rect id="rect3981" width="65" height="15" fill="#FFF"/><text id="text3985" fill="#979797" font-family="Source Code Pro" font-size="12" font-weight="700" text-anchor="middle" style="fill:#404040"><tspan id="tspan3983" x="32.5" y="11" fill="gray" style="fill:#404040">test.txt</tspan></text></g><g id="Rectangle-6-+-simplegit.rb-6" transform="translate(452 85)"><rect id="rect3988" width="65" height="15" fill="#FFF"/><text id="text3992" fill="#979797" font-family="Source Code Pro" font-size="12" font-weight="700" text-anchor="middle" style="fill:#404040"><tspan id="tspan3990" x="32.5" y="11" fill="gray" style="fill:#404040">test.txt</tspan></text></g><g id="Rectangle-6-+-simplegit.rb-4" transform="translate(458 52)"><rect id="rect3995" width="53" height="15" fill="#FFF"/><text id="new.txt" fill="#979797" font-family="Source Code Pro" font-size="12" font-weight="700" text-anchor="middle" style="fill:#404040"><tspan id="tspan3997" x="26.5" y="11" fill="gray" style="fill:#404040">new.txt</tspan></text></g><g id="Rectangle-6-+-simplegit.rb-7" transform="translate(458 187)"><rect id="rect4001" width="53" height="15" fill="#FFF"/><text id="text4005" fill="#979797" font-family="Source Code Pro" font-size="12" font-weight="700" text-anchor="middle" style="fill:#404040"><tspan id="tspan4003" x="26.5" y="11" fill="gray" style="fill:#404040">new.txt</tspan></text></g><g id="Rectangle-6-+-simplegit.rb-3" transform="translate(468 10)"><rect id="rect4008" width="34" height="15" fill="#FFF"/><text id="bak" fill="#979797" font-family="Source Code Pro" font-size="12" font-weight="700" text-anchor="middle" style="fill:#404040"><tspan id="tspan4010" x="17" y="11" fill="gray" style="fill:#404040">bak</tspan></text></g><g id="brown-2" transform="translate(355 36)"><rect id="rect4014" width="89" height="46" fill="#159099" rx="10"/><text id="tree" font-size="12" font-weight="700" transform="translate(.021656 -2.184)" style="fill:#f0f0f0;font-family:'Source Code Pro';font-size:12px;font-weight:700;text-anchor:middle"><tspan id="tspan4016" x="44.5" y="29" style="fill:#f0f0f0">tree</tspan></text><text id="3c4e9c" font-size="12" font-weight="700" transform="translate(-38.781 -2.2917)" style="fill:#f0f0f0;font-family:'Source Code Pro';font-feature-settings:normal;font-size:8px;font-variant-caps:normal;font-variant-ligatures:normal;font-variant-numeric:normal;font-weight:500"><tspan id="tspan4019" x="44.5" y="12" style="fill:#f0f0f0;font-family:'Source Code Pro';font-feature-settings:normal;font-size:8px;font-variant-caps:normal;font-variant-ligatures:normal;font-variant-numeric:normal;font-weight:500">3c4e9c</tspan></text></g><g id="brown-6" transform="translate(194 36)"><rect id="rect4023" width="120" height="46" fill="#CD9F00" rx="10"/><text id="third-commit" font-size="12" font-weight="700" transform="translate(.0036562 -.542)" style="fill:#979797;font-family:'Source Code Pro';font-size:12px;font-weight:700;text-anchor:middle"><tspan id="tspan4025" x="60" y="28" style="fill:#f0f0f0">third commit</tspan></text><text id="1a410e" font-size="12" font-weight="700" transform="translate(-54.536 -3.2899)" style="fill:#979797;font-family:'Source Code Pro';font-feature-settings:normal;font-size:8px;font-variant-caps:normal;font-variant-ligatures:normal;font-variant-numeric:normal;font-weight:500"><tspan id="tspan4028" x="60" y="13" style="fill:#f0f0f0;font-family:'Source Code Pro';font-feature-settings:normal;font-size:8px;font-variant-caps:normal;font-variant-ligatures:normal;font-variant-numeric:normal;font-weight:500">1a410e</tspan></text></g><path id="Line-3" fill="#8F8981" fill-rule="nonzero" d="m346 176h-72v-1h72v-4l9 4.5-9 4.5v-4z"/><g id="brown-8" transform="translate(194 152)"><rect id="rect4033" width="120" height="46" fill="#CD9F00" rx="10"/><text id="second-commit" font-size="12" font-weight="700" transform="translate(-.020344 -.542)" style="fill:#979797;font-family:'Source Code Pro';font-size:12px;font-weight:700;text-anchor:middle"><tspan id="tspan4035" x="60" y="28" style="fill:#f0f0f0">second commit</tspan></text><text id="cac0ca" font-size="12" font-weight="700" transform="translate(-54.433 -3.2896)" style="fill:#979797;font-family:'Source Code Pro';font-feature-settings:normal;font-size:8px;font-variant-caps:normal;font-variant-ligatures:normal;font-variant-numeric:normal;font-weight:500"><tspan id="tspan4038" x="60" y="13" style="fill:#f0f0f0;font-family:'Source Code Pro';font-feature-settings:normal;font-size:8px;font-variant-caps:normal;font-variant-ligatures:normal;font-variant-numeric:normal;font-weight:500">cac0ca</tspan></text></g><path id="path4042" fill="#8F8981" fill-rule="nonzero" d="m346 292h-72v-1h72v-4l9 4.5-9 4.5v-4z"/><g id="g4052" transform="translate(194 268)"><rect id="rect4044" width="120" height="46" rx="10" ry="10" transform="translate(.01156 .027662)" style="fill:#cd9f00"/><text id="first-commit" font-size="12" font-weight="700" transform="translate(-.18278 -.51434)" style="fill:#979797;font-family:'Source Code Pro';font-size:12px;font-weight:700;text-anchor:middle"><tspan id="tspan4046" x="60" y="28" style="fill:#f0f0f0">first commit</tspan></text><text id="fdf4fc" font-size="12" font-weight="700" transform="translate(-54.633 -3.2902)" style="fill:#979797;font-family:'Source Code Pro';font-feature-settings:normal;font-size:8px;font-variant-caps:normal;font-variant-ligatures:normal;font-variant-numeric:normal;font-weight:500"><tspan id="tspan4049" x="60" y="13" style="fill:#f0f0f0;font-family:'Source Code Pro';font-feature-settings:normal;font-size:8px;font-variant-caps:normal;font-variant-ligatures:normal;font-variant-numeric:normal;font-weight:500">fdf4fc</tspan></text></g><g id="Line-12-+-brown-9" transform="translate(10 152)"><path id="Line-12" fill="#8F8981" fill-rule="nonzero" d="m175 24h-72v-1h72v-4l9 4.5-9 4.5v-4z"/><g id="brown-9"><rect id="rect4055" width="139" height="46" fill="#F44D27" rx="10"/><text id="refs/heads/test" font-size="12" font-weight="700" transform="translate(-.39834 -.682)" style="fill:#979797;font-family:'Source Code Pro';font-size:12px;font-weight:700;text-anchor:middle"><tspan id="tspan4057" x="69.5" y="27" style="fill:#f0f0f0">refs/heads/test</tspan></text></g></g><g id="Line-12-+-brown-10" transform="translate(10 36)"><path id="path4062" fill="#8F8981" fill-rule="nonzero" d="m175 24h-72v-1h72v-4l9 4.5-9 4.5v-4z"/><g id="g4069"><rect id="rect4064" width="139" height="46" fill="#F44D27" rx="10"/><text id="refs/heads/master" font-size="12" font-weight="700" transform="translate(-.38634 -.682)" style="fill:#979797;font-family:'Source Code Pro';font-size:12px;font-weight:700;text-anchor:middle"><tspan id="tspan4066" x="69.5" y="27" style="fill:#f0f0f0">refs/heads/master</tspan></text></g></g><g id="brown-3" transform="translate(355 152)"><rect id="rect4072" width="89" height="46" fill="#159099" rx="10"/><text id="text4076" font-size="12" font-weight="700" transform="translate(.021656 -1.184)" style="fill:#f0f0f0;font-family:'Source Code Pro';font-size:12px;font-weight:700;text-anchor:middle"><tspan id="tspan4074" x="44.5" y="28" style="fill:#f0f0f0">tree</tspan></text><text id="0155eb" font-size="12" font-weight="700" transform="translate(-38.881 -2.293)" style="fill:#f0f0f0;font-family:'Source Code Pro';font-feature-settings:normal;font-size:8px;font-variant-caps:normal;font-variant-ligatures:normal;font-variant-numeric:normal;font-weight:500"><tspan id="tspan4078" x="44.5" y="12" style="fill:#f0f0f0;font-family:'Source Code Pro';font-feature-settings:normal;font-size:8px;font-variant-caps:normal;font-variant-ligatures:normal;font-variant-numeric:normal;font-weight:500">0155eb</tspan></text></g><g id="brown-7" transform="translate(354.9,268)"><rect id="rect4082" width="89" height="46" rx="10" ry="10" style="fill:#159099"/><text id="text4086" font-size="12" font-weight="700" transform="translate(.021656 -1.184)" style="fill:#f0f0f0;font-family:'Source Code Pro';font-size:12px;font-weight:700;text-anchor:middle"><tspan id="tspan4084" x="44.5" y="28" style="fill:#f0f0f0">tree</tspan></text><text id="d8329f" font-size="12" font-weight="700" transform="translate(-38.782 -2.2933)" style="fill:#f0f0f0;font-family:'Source Code Pro';font-feature-settings:normal;font-size:8px;font-variant-caps:normal;font-variant-ligatures:normal;font-variant-numeric:normal;font-weight:500"><tspan id="tspan4088" x="44.5" y="12" style="fill:#f0f0f0;font-family:'Source Code Pro';font-feature-settings:normal;font-size:8px;font-variant-caps:normal;font-variant-ligatures:normal;font-variant-numeric:normal;font-weight:500">d8329f</tspan></text></g></g></svg>