<svg xmlns="http://www.w3.org/2000/svg" id="svg3621" version="1.1" viewBox="0 0 479 356"><metadata id="metadata3627"/><title id="title3483">images/data-model-3</title><desc id="desc3485">Created with Sketch.</desc><g id="Page-89" fill="none" fill-rule="evenodd"><path id="Line-2" fill="#8F8981" fill-rule="nonzero" d="m152 60h-72v-1h72v-4l9 4.5-9 4.5v-4z"/><path id="Line-6" fill="#8F8981" fill-rule="nonzero" d="m331 293h-81v-1h81v-4l9 4.5-9 4.5v-4z"/><path id="Line-10" fill="#8F8981" fill-rule="nonzero" d="m446 209h9.1247v-149h-205.12v-1h206.12v151h-10.125v4l-9-4.5 9-4.5v4z"/><path id="Line-11" fill="#8F8981" fill-rule="nonzero" d="m239.1 320.3 21.627 25.157h207.43v-327.45h-203.03l-31.906 36.561-.75344-.65751 32.205-36.904h204.48v329.45h-208.89l-21.926-25.505-3.0332 2.6076-2.4548-9.7583 9.2795 3.8911-3.0332 2.6076z"/><path id="Line-7" fill="#8F8981" fill-rule="nonzero" d="m332.21 207.54-82.337-24.701.28735-.95783 82.337 24.701 1.1494-3.8313 7.3274 6.8963-9.9135 1.7241 1.1494-3.8313z"/><path id="Line-9" fill="#8F8981" fill-rule="nonzero" d="m331.69 115.11-81.861-41.39.45122-.89241 81.861 41.39 1.8049-3.5697 6.0012 8.0768-10.062-.045122 1.8049-3.5697z"/><path id="Line-8" fill="#8F8981" fill-rule="nonzero" d="m331.45 144.28-81.298 22.837-.27043-.96274 81.298-22.837-1.0817-3.851 9.8816 1.8984-7.4477 6.7662-1.0817-3.851z"/><path id="Line-4" fill="#8F8981" fill-rule="nonzero" d="m61 143v-84h1v84h4l-4.5 9-4.5-9h4z"/><path id="Line-5" fill="#8F8981" fill-rule="nonzero" d="m61 259v-84h1v84h4l-4.5 9-4.5-9h4z"/><g id="brown" transform="translate(341 109)"><rect id="Rectangle-1" width="97" height="46" fill="#EFEFE7" rx="10"/><text id="&quot;version-2&quot;" fill="#979797" font-family="Source Code Pro" font-size="12" font-weight="700" text-anchor="middle"><tspan id="tspan3497" x="48.5" y="29" fill="gray">&quot;version 2&quot;</tspan></text><text id="1f7a7a" font-size="12" font-weight="700" transform="translate(-43.069 -2.293)" style="fill:#979797;font-family:'Source Code Pro';font-feature-settings:normal;font-size:8px;font-variant-caps:normal;font-variant-ligatures:normal;font-variant-numeric:normal;font-weight:500"><tspan id="tspan3500" x="48.5" y="12" style="fill:gray;font-family:'Source Code Pro';font-feature-settings:normal;font-size:8px;font-variant-caps:normal;font-variant-ligatures:normal;font-variant-numeric:normal;font-weight:500">1f7a7a</tspan></text></g><g id="brown-4" transform="translate(341 187)"><rect id="rect3504" width="97" height="46" fill="#EFEFE7" rx="10"/><text id="&quot;new-file&quot;" font-size="12" font-weight="700" transform="translate(-.0083438 -1.542)" style="fill:#979797;font-family:'Source Code Pro';font-size:12px;font-weight:700;text-anchor:middle"><tspan id="tspan3506" x="48.5" y="29" style="fill:gray">&quot;new file&quot;</tspan></text><text id="fa49b0" font-size="12" font-weight="700" transform="translate(-43.167 -2.1927)" style="fill:#979797;font-family:'Source Code Pro';font-feature-settings:normal;font-size:8px;font-variant-caps:normal;font-variant-ligatures:normal;font-variant-numeric:normal;font-weight:500"><tspan id="tspan3509" x="48.5" y="12" style="fill:gray;font-family:'Source Code Pro';font-feature-settings:normal;font-size:8px;font-variant-caps:normal;font-variant-ligatures:normal;font-variant-numeric:normal;font-weight:500">fa49b0</tspan></text></g><g id="brown-5" transform="translate(340.95 267.89)"><rect id="rect3513" width="97" height="46" rx="10" ry="10" style="fill:#efefe7"/><text id="&quot;version-1&quot;" font-size="12" font-weight="700" transform="translate(-.0083438 -1.542)" style="fill:#979797;font-family:'Source Code Pro';font-size:12px;font-weight:700;text-anchor:middle"><tspan id="tspan3515" x="48.5" y="29" style="fill:gray">&quot;version 1&quot;</tspan></text><text id="83baae" font-size="12" font-weight="700" transform="translate(-42.87 -2.3923)" style="fill:#979797;font-family:'Source Code Pro';font-feature-settings:normal;font-size:8px;font-variant-caps:normal;font-variant-ligatures:normal;font-variant-numeric:normal;font-weight:500"><tspan id="tspan3518" x="48.5" y="12" style="fill:gray;font-family:'Source Code Pro';font-feature-settings:normal;font-size:8px;font-variant-caps:normal;font-variant-ligatures:normal;font-variant-numeric:normal;font-weight:500">83baae</tspan></text></g><g id="Rectangle-6-+-simplegit.rb-2" transform="translate(258 285)"><rect id="Rectangle-6" width="65" height="15" fill="#FFF"/><text id="test.txt" fill="#979797" font-family="Source Code Pro" font-size="12" font-weight="700" text-anchor="middle" style="fill:#404040"><tspan id="tspan3523" x="32.5" y="11" fill="gray" style="fill:#404040">test.txt</tspan></text></g><g id="Rectangle-6-+-simplegit.rb-5" transform="translate(258 147)"><rect id="rect3527" width="65" height="15" fill="#FFF"/><text id="text3531" fill="#979797" font-family="Source Code Pro" font-size="12" font-weight="700" text-anchor="middle" style="fill:#404040"><tspan id="tspan3529" x="32.5" y="11" fill="gray" style="fill:#404040">test.txt</tspan></text></g><g id="Rectangle-6-+-simplegit.rb-6" transform="translate(258 85)"><rect id="rect3534" width="65" height="15" fill="#FFF"/><text id="text3538" fill="#979797" font-family="Source Code Pro" font-size="12" font-weight="700" text-anchor="middle" style="fill:#404040"><tspan id="tspan3536" x="32.5" y="11" fill="gray" style="fill:#404040">test.txt</tspan></text></g><g id="Rectangle-6-+-simplegit.rb-4" transform="translate(264 52)"><rect id="rect3541" width="53" height="15" fill="#FFF"/><text id="new.txt" fill="#979797" font-family="Source Code Pro" font-size="12" font-weight="700" text-anchor="middle" style="fill:#404040"><tspan id="tspan3543" x="26.5" y="11" fill="gray" style="fill:#404040">new.txt</tspan></text></g><g id="Rectangle-6-+-simplegit.rb-7" transform="translate(264 187)"><rect id="rect3547" width="53" height="15" fill="#FFF"/><text id="text3551" fill="#979797" font-family="Source Code Pro" font-size="12" font-weight="700" text-anchor="middle" style="fill:#404040"><tspan id="tspan3549" x="26.5" y="11" fill="gray" style="fill:#404040">new.txt</tspan></text></g><g id="Rectangle-6-+-simplegit.rb-3" transform="translate(274 10)"><rect id="rect3554" width="34" height="15" fill="#FFF"/><text id="bak" fill="#979797" font-family="Source Code Pro" font-size="12" font-weight="700" text-anchor="middle" style="fill:#404040"><tspan id="tspan3556" x="17" y="11" fill="gray" style="fill:#404040">bak</tspan></text></g><g id="brown-2" transform="translate(161,35.9)"><rect id="rect3560" width="89" height="46" rx="10" ry="10" style="fill:#159099"/><text id="tree" font-size="12" font-weight="700" transform="translate(.021656 -2.184)" style="fill:#f0f0f0;font-family:'Source Code Pro';font-size:12px;font-weight:700;text-anchor:middle"><tspan id="tspan3562" x="44.5" y="29" style="fill:#f0f0f0">tree</tspan></text><text id="3c4e9c" font-size="12" font-weight="700" transform="translate(-38.844 -2.2612)" style="fill:#f0f0f0;font-family:'Source Code Pro';font-feature-settings:normal;font-size:8px;font-variant-caps:normal;font-variant-ligatures:normal;font-variant-numeric:normal;font-weight:500"><tspan id="tspan3565" x="44.5" y="12" style="fill:#f0f0f0;font-family:'Source Code Pro';font-feature-settings:normal;font-size:8px;font-variant-caps:normal;font-variant-ligatures:normal;font-variant-numeric:normal;font-weight:500">3c4e9c</tspan></text></g><g id="brown-6" transform="translate(0 36)"><rect id="rect3569" width="120" height="46" fill="#CD9F00" rx="10"/><text id="third-commit" font-size="12" font-weight="700" transform="translate(.0036562 -.542)" style="fill:#f0f0f0;font-family:'Source Code Pro';font-size:12px;font-weight:700;text-anchor:middle"><tspan id="tspan3571" x="60" y="28" style="fill:#f0f0f0">third commit</tspan></text><text id="1a410e" font-size="12" font-weight="700" transform="translate(-54.513 -3.3459)" style="fill:#f0f0f0;font-family:'Source Code Pro';font-feature-settings:normal;font-size:8px;font-variant-caps:normal;font-variant-ligatures:normal;font-variant-numeric:normal;font-weight:500"><tspan id="tspan3574" x="60" y="13" style="fill:#f0f0f0;font-family:'Source Code Pro';font-feature-settings:normal;font-size:8px;font-variant-caps:normal;font-variant-ligatures:normal;font-variant-numeric:normal;font-weight:500">1a410e</tspan></text></g><path id="Line-3" fill="#8F8981" fill-rule="nonzero" d="m152 176h-72v-1h72v-4l9 4.5-9 4.5v-4z"/><g id="brown-8" transform="translate(0 152)"><rect id="rect3579" width="120" height="46" fill="#CD9F00" rx="10"/><text id="second-commit" font-size="12" font-weight="700" transform="translate(-.020344 -.542)" style="fill:#979797;font-family:'Source Code Pro';font-size:12px;font-weight:700;text-anchor:middle"><tspan id="tspan3581" x="60" y="28" style="fill:#f0f0f0">second commit</tspan></text><text id="cac0ca" font-size="12" font-weight="700" transform="translate(-54.451 -3.2845)" style="fill:#979797;font-family:'Source Code Pro';font-feature-settings:normal;font-size:8px;font-variant-caps:normal;font-variant-ligatures:normal;font-variant-numeric:normal;font-weight:500"><tspan id="tspan3584" x="60" y="13" style="fill:#f0f0f0;font-family:'Source Code Pro';font-feature-settings:normal;font-size:8px;font-variant-caps:normal;font-variant-ligatures:normal;font-variant-numeric:normal;font-weight:500">cac0ca</tspan></text></g><path id="path3588" fill="#8F8981" fill-rule="nonzero" d="m152 292h-72v-1h72v-4l9 4.5-9 4.5v-4z"/><g id="g3598" transform="translate(0 268)"><rect id="rect3590" width="120" height="46" fill="#CD9F00" rx="10"/><text id="first-commit" font-size="12" font-weight="700" transform="translate(-.19434 -.542)" style="fill:#979797;font-family:'Source Code Pro';font-size:12px;font-weight:700;text-anchor:middle"><tspan id="tspan3592" x="60" y="28" style="fill:#f0f0f0">first commit</tspan></text><text id="fdf4fc" font-size="12" font-weight="700" transform="translate(-54.633 -3.5881)" style="fill:#979797;font-family:'Source Code Pro';font-feature-settings:normal;font-size:8px;font-variant-caps:normal;font-variant-ligatures:normal;font-variant-numeric:normal;font-weight:500"><tspan id="tspan3595" x="60" y="13" style="fill:#f0f0f0;font-family:'Source Code Pro';font-feature-settings:normal;font-size:8px;font-variant-caps:normal;font-variant-ligatures:normal;font-variant-numeric:normal;font-weight:500">fdf4fc</tspan></text></g><g id="brown-3" transform="translate(161 152)"><rect id="rect3600" width="89" height="46" fill="#159099" rx="10"/><text id="text3604" font-size="12" font-weight="700" transform="translate(.021656 -1.184)" style="fill:#f0f0f0;font-family:'Source Code Pro';font-size:12px;font-weight:700;text-anchor:middle"><tspan id="tspan3602" x="44.5" y="28" style="fill:#f0f0f0">tree</tspan></text><text id="0155eb" font-size="12" font-weight="700" transform="translate(-38.801 -2.2953)" style="fill:#f0f0f0;font-family:'Source Code Pro';font-feature-settings:normal;font-size:8px;font-variant-caps:normal;font-variant-ligatures:normal;font-variant-numeric:normal;font-weight:500"><tspan id="tspan3606" x="44.5" y="12" style="fill:#f0f0f0;font-family:'Source Code Pro';font-feature-settings:normal;font-size:8px;font-variant-caps:normal;font-variant-ligatures:normal;font-variant-numeric:normal;font-weight:500">0155eb</tspan></text></g><g id="brown-7" transform="translate(161 268)"><rect id="rect3610" width="89" height="46" fill="#159099" rx="10"/><text id="text3614" font-size="12" font-weight="700" transform="translate(.021656 -1.184)" style="fill:#f0f0f0;font-family:'Source Code Pro';font-size:12px;font-weight:700;text-anchor:middle"><tspan id="tspan3612" x="44.5" y="28" style="fill:#f0f0f0">tree</tspan></text><text id="d8329f" font-size="12" font-weight="700" transform="translate(-38.683 -2.5923)" style="fill:#f0f0f0;font-family:'Source Code Pro';font-feature-settings:normal;font-size:8px;font-variant-caps:normal;font-variant-ligatures:normal;font-variant-numeric:normal;font-weight:500"><tspan id="tspan3616" x="44.5" y="12" style="fill:#f0f0f0;font-family:'Source Code Pro';font-feature-settings:normal;font-size:8px;font-variant-caps:normal;font-variant-ligatures:normal;font-variant-numeric:normal;font-weight:500">d8329f</tspan></text></g></g></svg>