<svg xmlns="http://www.w3.org/2000/svg" id="svg4406" version="1.1" viewBox="0 0 558 216"><metadata id="metadata4281"/><title id="title4283">images/deltas</title><desc id="desc4285">Created with Sketch.</desc><g id="g4384" fill-rule="evenodd"><rect id="rect4287" width="89" height="33" fill="#cd9f00" rx="16.5" transform="translate(1,26)"/><text id="text4291" fill="#fff" fill-opacity=".8" font-family="'Source Code Pro'" font-size="12" font-weight="700" text-anchor="middle" transform="translate(1,26)"><tspan id="tspan4289" x="44.5" y="20" fill="#f0f0f0" fill-opacity="1">Version 1</tspan></text><rect id="rect4293" width="89" height="33" fill="#cd9f00" rx="16.5" transform="translate(117,26)"/><text id="text4297" fill="#fff" fill-opacity=".8" font-family="'Source Code Pro'" font-size="12" font-weight="700" text-anchor="middle" transform="translate(117,26)"><tspan id="tspan4295" x="44.5" y="20" fill="#f0f0f0" fill-opacity="1">Version 2</tspan></text><rect id="rect4299" width="89" height="33" fill="#cd9f00" rx="16.5" transform="translate(233,26)"/><text id="text4303" fill="#fff" fill-opacity=".8" font-family="'Source Code Pro'" font-size="12" font-weight="700" text-anchor="middle" transform="translate(233,26)"><tspan id="tspan4301" x="44.5" y="20" fill="#f0f0f0" fill-opacity="1">Version 3</tspan></text><rect id="rect4305" width="89" height="33" fill="#cd9f00" rx="16.5" transform="translate(349,26)"/><text id="text4309" fill="#fff" fill-opacity=".8" font-family="'Source Code Pro'" font-size="12" font-weight="700" text-anchor="middle" transform="translate(349,26)"><tspan id="tspan4307" x="44.5" y="20" fill="#f0f0f0" fill-opacity="1">Version 4</tspan></text><rect id="rect4311" width="89" height="33" fill="#cd9f00" rx="16.5" transform="translate(465,26)"/><text id="text4315" fill="#fff" fill-opacity=".8" font-family="'Source Code Pro'" font-size="12" font-weight="700" text-anchor="middle" transform="translate(465,26)"><tspan id="tspan4313" x="44.5" y="20" fill="#f0f0f0" fill-opacity="1">Version 5</tspan></text><g id="brown" transform="translate(1,85)"><rect id="rect4317" width="89" height="33" fill="#efefe7" fill-rule="evenodd" rx="16.5"/><text id="text4321" fill="#979797" font-family="'Source Code Pro'" font-size="12" font-weight="700" text-anchor="middle"><tspan id="tspan4319" x="44.5" y="21" fill="gray">File A</tspan></text></g><rect id="rect4324" width="89" height="33" fill="#efefe7" rx="16.5" transform="translate(1,85)"/><text id="text4328" fill="#4d4d4d" font-family="'Source Code Pro'" font-size="12" font-weight="700" text-anchor="middle" transform="translate(1,85)" style="fill:gray"><tspan id="tspan4326" x="44.5" y="21" fill="#f0f0f0" style="fill:gray">File A</tspan></text><rect id="rect4330" width="89" height="33" fill="#efefe7" rx="16.5" transform="translate(117,85)"/><text id="text4334" fill="#4d4d4d" font-family="'Source Code Pro'" font-size="12" font-weight="700" text-anchor="middle" transform="translate(117,85)" style="fill:gray"><tspan id="tspan4332" x="44.5" y="21" fill="#f0f0f0" style="fill:gray">Δ1</tspan></text><rect id="rect4336" width="89" height="33" fill="#efefe7" rx="16.5" transform="translate(117,183)"/><text id="text4340" fill="#4d4d4d" font-family="'Source Code Pro'" font-size="12" font-weight="700" text-anchor="middle" transform="translate(117,183)" style="fill:gray"><tspan id="tspan4338" x="44.5" y="21" fill="#f0f0f0" style="fill:gray">Δ1</tspan></text><rect id="rect4342" width="89" height="33" fill="#efefe7" rx="16.5" transform="translate(233,183)"/><text id="text4346" fill="#4d4d4d" font-family="'Source Code Pro'" font-size="12" font-weight="700" text-anchor="middle" transform="translate(233,183)" style="fill:gray"><tspan id="tspan4344" x="44.5" y="21" fill="#f0f0f0" style="fill:gray">Δ2</tspan></text><rect id="rect4348" width="89" height="33" fill="#efefe7" rx="16.5" transform="translate(349,134)"/><text id="text4352" fill="#4d4d4d" font-family="'Source Code Pro'" font-size="12" font-weight="700" text-anchor="middle" transform="translate(349,134)" style="fill:gray"><tspan id="tspan4350" x="44.5" y="21" fill="#f0f0f0" style="fill:gray">Δ1</tspan></text><rect id="rect4354" width="89" height="33" fill="#efefe7" rx="16.5" transform="translate(349,85)"/><text id="text4358" fill="#4d4d4d" font-family="'Source Code Pro'" font-size="12" font-weight="700" text-anchor="middle" transform="translate(349,85)" style="fill:gray"><tspan id="tspan4356" x="44.5" y="21" fill="#f0f0f0" style="fill:gray">Δ2</tspan></text><rect id="rect4360" width="89" height="33" fill="#efefe7" rx="16.5" transform="translate(465,134)"/><text id="text4364" fill="#4d4d4d" font-family="'Source Code Pro'" font-size="12" font-weight="700" text-anchor="middle" transform="translate(465,134)" style="fill:gray"><tspan id="tspan4362" x="44.5" y="21" fill="#f0f0f0" style="fill:gray">Δ2</tspan></text><rect id="rect4366" width="89" height="33" fill="#efefe7" rx="16.5" transform="translate(465,183)"/><text id="text4370" fill="#4d4d4d" font-family="'Source Code Pro'" font-size="12" font-weight="700" text-anchor="middle" transform="translate(465,183)" style="fill:gray"><tspan id="tspan4368" x="44.5" y="21" fill="#f0f0f0" style="fill:gray">Δ3</tspan></text><rect id="rect4372" width="89" height="33" fill="#efefe7" rx="16.5" transform="translate(1,134)"/><text id="text4376" fill="#4d4d4d" font-family="'Source Code Pro'" font-size="12" font-weight="700" text-anchor="middle" transform="translate(1,134)" style="fill:gray"><tspan id="tspan4374" x="44.5" y="21" fill="#f0f0f0" style="fill:gray">File B</tspan></text><rect id="rect4378" width="89" height="33" fill="#efefe7" rx="16.5" transform="translate(1,183)"/><text id="text4382" fill="#4d4d4d" font-family="'Source Code Pro'" font-size="12" font-weight="700" text-anchor="middle" transform="translate(1,183)" style="fill:gray"><tspan id="tspan4380" x="44.5" y="21" fill="#f0f0f0" style="fill:gray">File C</tspan></text></g><g id="g4401" fill="#8f8981"><path id="Line" d="m107 103h-18v-1h18v-4l9 4.5-9 4.5z" transform="translate(1,-1)"/><path id="path4387" d="m339 103h-134v-1h134v-4l9 4.5-9 4.5z" transform="translate(1,-1)"/><path id="path4389" d="m339 152h-250v-1h250v-4l9 4.5-9 4.5z" transform="translate(1,-1)"/><path id="path4391" d="m107 201h-18v-1h18v-4l9 4.5-9 4.5z" transform="translate(1,-1)"/><path id="path4393" d="m223 201h-18v-1h18v-4l9 4.5-9 4.5z" transform="translate(1,-1)"/><path id="path4395" d="m455 201h-134v-1h134v-4l9 4.5-9 4.5z" transform="translate(1,-1)"/><path id="path4397" d="m455 152h-18v-1h18v-4l9 4.5-9 4.5z" transform="translate(1,-1)"/><path id="path4399" d="m538.5 17h-539v-2h539v-6l14 7-14 7z" transform="translate(1,-1)"/></g><text id="Checkins-Over-Time" fill="#4d4d4d" fill-rule="evenodd" font-family="'Source Code Pro'" font-size="12" font-weight="700" transform="translate(1,-1)" style="fill:#404040"><tspan id="tspan4403" x="211" y="11" fill="#4d4d4d" style="fill:#404040">Checkins Over Time</tspan></text></svg>