<svg xmlns="http://www.w3.org/2000/svg" xmlns:svg="http://www.w3.org/2000/svg" id="svg1787" width="560" height="94" version="1.1" viewBox="0 0 560 94"><metadata id="metadata1793"/><title id="title1704">images/double-dot</title><desc id="desc1706">Created with Sketch.</desc><g id="g1931" transform="translate(-6,-6)"><g id="brown" transform="translate(10,10)" style="fill:none;fill-rule:evenodd;stroke:none;stroke-width:1"><rect id="Rectangle-1" width="89" height="33" x="0" y="0" rx="16.5" ry="16.5" style="fill:#efefe7;fill-rule:evenodd"/><text id="C6" font-size="12" font-weight="700" style="font-weight:700;font-size:12px;font-family:'Source Code Pro';text-anchor:middle;fill:#979797;fill-opacity:1;stroke:none"><tspan id="tspan1709" x="44.5" y="21" style="fill:gray;fill-opacity:1">A</tspan></text></g><g id="Line-3-+-brown-4" transform="translate(99,10)" style="fill:none;fill-rule:evenodd;stroke:none;stroke-width:1"><path id="Line-3" d="m 9,16 h 45 v 1 H 9 v 4 L 0,16.5 9,12 Z" style="fill:#8f8981;fill-rule:nonzero"/><g id="g1720" transform="translate(30)"><rect id="rect1714" width="89" height="33" x="0" y="0" rx="16.5" ry="16.5" style="fill:#efefe7;fill-rule:evenodd"/><text id="text1718" font-size="12" font-weight="700" style="font-weight:700;font-size:12px;font-family:'Source Code Pro';text-anchor:middle;fill:#979797;fill-opacity:1;stroke:none"><tspan id="tspan1716" x="44.5" y="21" style="fill:gray;fill-opacity:1">B</tspan></text></g></g><g id="Line-3-+-brown-5" transform="translate(218,10)" style="fill:none;fill-rule:evenodd;stroke:none;stroke-width:1"><path id="path1723" d="m 9,16 h 45 v 1 H 9 v 4 L 0,16.5 9,12 Z" style="fill:#8f8981;fill-rule:nonzero"/><g id="g1731" transform="translate(30)"><rect id="rect1725" width="89" height="33" x="0" y="0" rx="16.5" ry="16.5" style="fill:#efefe7;fill-rule:evenodd"/><text id="text1729" font-size="12" font-weight="700" style="font-weight:700;font-size:12px;font-family:'Source Code Pro';text-anchor:middle;fill:#979797;fill-opacity:1;stroke:none"><tspan id="tspan1727" x="44.5" y="21" style="fill:gray;fill-opacity:1">E</tspan></text></g></g><g id="Line-3-+-brown-6" transform="translate(337,10)" style="fill:none;fill-rule:evenodd;stroke:none;stroke-width:1"><path id="path1734" d="m 9,16 h 45 v 1 H 9 v 4 L 0,16.5 9,12 Z" style="fill:#8f8981;fill-rule:nonzero"/><path id="Line-4" d="m 9,16 h 45 v 1 H 9 v 4 L 0,16.5 9,12 Z" style="fill:#8f8981;fill-rule:nonzero"/><g id="g1743" transform="translate(30)"><rect id="rect1737" width="89" height="33" x="0" y="0" rx="16.5" ry="16.5" style="fill:#efefe7;fill-rule:evenodd"/><text id="text1741" font-size="12" font-weight="700" style="font-weight:700;font-size:12px;font-family:'Source Code Pro';text-anchor:middle;fill:#979797;fill-opacity:1;stroke:none"><tspan id="tspan1739" x="44.5" y="21" style="fill:gray;fill-opacity:1">F</tspan></text></g></g><g id="Line-3-+-brown-8" transform="translate(210,40)" style="fill:none;fill-rule:evenodd;stroke:none;stroke-width:1"><path id="path1746" d="M 7.9307691,4.6573634 62.190592,39.34807 61.65193,40.190592 7.3921074,5.4998855 5.2374606,8.8699741 0.07873893,0.23066915 10.085416,1.2872748 Z" style="fill:#8f8981;fill-rule:nonzero"/><g id="g1754" transform="translate(38,23)"><rect id="rect1748" width="89" height="33" x="0" y="0" rx="16.5" ry="16.5" style="fill:#efefe7;fill-rule:evenodd"/><text id="text1752" font-size="12" font-weight="700" style="font-weight:700;font-size:12px;font-family:'Source Code Pro';text-anchor:middle;fill:#979797;fill-opacity:1;stroke:none"><tspan id="tspan1750" x="44.5" y="21" style="fill:gray;fill-opacity:1">C</tspan></text></g></g><g id="Line-3-+-brown-7" transform="translate(337,63)" style="fill:none;fill-rule:evenodd;stroke:none;stroke-width:1"><path id="path1757" d="m 9,16 h 45 v 1 H 9 v 4 L 0,16.5 9,12 Z" style="fill:#8f8981;fill-rule:nonzero"/><g id="g1765" transform="translate(30)"><rect id="rect1759" width="89" height="33" x="0" y="0" rx="16.5" ry="16.5" style="fill:#efefe7;fill-rule:evenodd"/><text id="text1763" font-size="12" font-weight="700" style="font-weight:700;font-size:12px;font-family:'Source Code Pro';text-anchor:middle;fill:#979797;fill-opacity:1;stroke:none"><tspan id="tspan1761" x="44.5" y="21" style="fill:gray;fill-opacity:1">D</tspan></text></g></g><g id="g1870"><path id="Line-5" d="m 9,17 h 45 v 1 H 9 v 4 L 0,17.5 9,13 Z" transform="translate(456,10)" style="fill:#8f8981;fill-rule:nonzero;stroke:none;stroke-width:1"/><g id="g1863"><rect id="Rectangle-2" width="106" height="33" x="0" y="0" transform="matrix(0.81132075,0,0,1,476,10)" style="fill:#f44d27;fill-rule:evenodd;stroke:none;stroke-width:1"/><text id="master" font-size="12" font-weight="700" transform="translate(466.09966,10.316)" style="font-weight:700;font-size:12px;font-family:'Source Code Pro';text-anchor:middle;fill:#979797;fill-opacity:1;fill-rule:evenodd;stroke:none;stroke-width:1"><tspan id="tspan1770" x="53" y="20" style="fill:#f0f0f0;fill-opacity:1">master</tspan></text></g></g><g id="g1882"><path id="path1775" d="m 9,17 h 45 v 1 H 9 v 4 L 0,17.5 9,13 Z" transform="translate(456,63)" style="fill:#8f8981;fill-rule:nonzero;stroke:none;stroke-width:1"/><g id="g1875"><rect id="rect1777" width="106" height="33" x="0" y="0" transform="matrix(0.81132075,0,0,1,476,63)" style="fill:#f44d27;fill-rule:evenodd;stroke:none;stroke-width:1"/><text id="text1781" font-size="12" font-weight="700" transform="translate(465.96766,62.926)" style="font-weight:700;font-size:12px;font-family:'Source Code Pro';text-anchor:middle;fill:#979797;fill-opacity:1;fill-rule:evenodd;stroke:none;stroke-width:1"><tspan id="tspan1779" x="53" y="20" style="fill:#f0f0f0;fill-opacity:1">experiment</tspan></text></g></g></g></svg>