<svg xmlns="http://www.w3.org/2000/svg" id="svg7076" version="1.1" viewBox="0 0 516 227"><metadata id="metadata7080"/><title id="title7020">images/lifecycle</title><desc id="desc7022">Created with Sketch.</desc><g id="layer1"><g id="02---lifecycle" style="fill-rule:evenodd;fill:none"><path id="Line-6" d="m43.5 17.469v195.88" transform="translate(10.5)" style="fill:#8f8981;stroke-linecap:square;stroke:#8f8981"/><path id="Line-3" d="m323.5 17.469v195.88" transform="translate(1.9)" style="fill:#8f8981;stroke-linecap:square;stroke:#8f8981"/><path id="Line-2" d="m183.5 17.469v195.88" transform="translate(6.2)" style="fill:#8f8981;stroke-linecap:square;stroke:#8f8981"/><path id="Line-7" d="m463.5 16.937v195.88" transform="translate(-2.4841)" style="fill:#8f8981;stroke-linecap:square;stroke:#8f8981"/><g id="goldref" transform="translate(281)"><rect id="Rectangle-3" width="108" height="33" transform="matrix(.99844 0 0 1 -9.6 0)" style="fill-rule:evenodd;fill:#cd9f00"/><text id="master-2" font-size="12" font-weight="700" transform="translate(-9.6023)" style="fill:#979797;font-family:'Source Code Pro';font-size:12px;font-weight:700;text-anchor:middle"><tspan id="tspan7032" x="54" y="20" style="fill:#f0f0f0">Modified</tspan></text></g><path id="Line-4" d="m261 116.32h-71.316v-21.682l71.316-.0349v-6.4182l64.395 17.311-64.395 17.305z" style="fill-rule:nonzero;fill:#8f8981"/><path id="Line-9" d="m397.91 76.738h-343.93v-21.717h343.93v-6.4121l63.071 17.271-63.071 17.33z" style="fill-rule:nonzero;fill:#8f8981"/><path id="Line-10" d="m110.43 142.72h72.744v21.67l-72.744-1e-5v6.449l-62.956-17.3 62.956-17.32z" transform="translate(6.5119)" style="fill-rule:nonzero;fill:#8f8981"/><path id="Line-5" d="m399.93 151.83h-72.52v-21.717h72.52v-6.4368l63.071 17.325-63.071 17.322z" transform="translate(-2.0144 -12.314)" style="fill-rule:nonzero;fill:#8f8981"/><path id="Line-8" d="m252.46 174.61h208.52v21.636l-208.52-.0262v6.5437l-62.777-17.317 62.777-17.307z" style="fill-rule:nonzero;fill:#8f8981"/><text id="Edit-the-file" font-size="12" font-weight="700" transform="translate(2 -7.2452)" style="fill:#fff;font-family:'Source Code Pro';font-size:12px;font-weight:700"><tspan id="tspan7041" x="195.59" y="116">Edit the file</tspan></text><text id="Add-the-file" font-size="12" font-weight="700" transform="translate(9 .19847)" style="fill:#fff;font-family:'Source Code Pro';font-size:12px;font-weight:700"><tspan id="tspan7044" x="57.391" y="70.17">Add the file</tspan></text><text id="Remove-the-file" font-size="12" font-weight="700" transform="translate(1.5325 .45528)" style="fill:#fff;font-family:'Source Code Pro';font-size:12px;font-weight:700"><tspan id="tspan7047" x="76.989" y="157.031">Remove the file</tspan></text><text id="Stage-the-file" font-size="12" font-weight="700" transform="translate(-.8512 -13.221)" style="fill:#fff;font-family:'Source Code Pro';font-size:12px;font-weight:700"><tspan id="tspan7050" x="331.79" y="145.17">Stage the file</tspan></text><g id="other"><rect id="Rectangle-2" width="86" height="33" transform="scale(1.2558 1)" style="fill-rule:evenodd;fill:#efefe7"/><text id="master" font-size="12" font-weight="700" transform="translate(11.045)" style="fill:#979797;font-family:'Source Code Pro';font-size:12px;font-weight:700;text-anchor:middle"><tspan id="tspan7054" x="43" y="21" style="fill:gray">Untracked</tspan></text></g><g id="symref" transform="translate(140)"><rect id="rect7058" width="86" height="33" transform="matrix(1.2566 0 0 1 -4.3944 0)" style="fill-rule:evenodd;fill:#00909a"/><text id="text7062" font-size="12" font-weight="700" transform="translate(6.6865)" style="fill:#979797;font-family:'Source Code Pro';font-size:12px;font-weight:700;text-anchor:middle"><tspan id="tspan7060" x="43" y="20" style="fill:#f0f0f0">Unmodified</tspan></text></g><text id="Commit" font-size="12" font-weight="700" transform="translate(-14.974 -.090725)" style="fill:#fff;font-family:'Source Code Pro';font-size:12px;font-weight:700"><tspan id="tspan7065" x="318.697" y="190">Commit</tspan></text><g id="ref" transform="translate(409)"><rect id="rect7068" width="106" height="33" transform="matrix(1.0184 0 0 1 -1.9532 0)" style="fill-rule:evenodd;fill:#f44d27"/><text id="text7072" font-size="12" font-weight="700" transform="translate(-.84695)" style="fill:#979797;font-family:'Source Code Pro';font-size:12px;font-weight:700;text-anchor:middle"><tspan id="tspan7070" x="53" y="20" style="fill:#f0f0f0">Staged</tspan></text></g></g></g></svg>