<svg xmlns="http://www.w3.org/2000/svg" id="svg7676" version="1.1" viewBox="0 0 454 210"><metadata id="metadata7682"/><title id="title7600">images/managed-team-1</title><desc id="desc7602">Created with Sketch.</desc><g id="g7806" transform="translate(-2,-2)"><g id="brown" transform="translate(6,67)" style="fill-rule:evenodd;fill:none"><rect id="Rectangle-1" width="89" height="33" rx="16.5" ry="16.5" style="fill-rule:evenodd;fill:#efefe7"/><text id="C6" font-size="12" font-weight="700" style="fill:#979797;font-family:'Source Code Pro';font-size:12px;font-weight:700;text-anchor:middle"><tspan id="tspan7605" x="44.5" y="21" style="fill:gray">4b078</tspan></text></g><path id="Line" d="m104 83h45v1h-45v4l-9-4.5 9-4.5z" style="fill:#8f8981"/><g id="g7616" transform="translate(125,67)" style="fill-rule:evenodd;fill:none"><rect id="rect7610" width="89" height="33" rx="16.5" ry="16.5" style="fill-rule:evenodd;fill:#efefe7"/><text id="text7614" font-size="12" font-weight="700" style="fill:#979797;font-family:'Source Code Pro';font-size:12px;font-weight:700;text-anchor:middle"><tspan id="tspan7612" x="44.5" y="21" style="fill:gray">1edee</tspan></text></g><g id="Line-+-brown-2" transform="translate(214,67)" style="fill-rule:evenodd;fill:none"><path id="path7618" d="m9 16h45v1h-45v4l-9-4.5 9-4.5z" style="fill-rule:nonzero;fill:#8f8981"/><g id="jessica" transform="translate(30)"><rect id="rect7620" width="89" height="33" rx="16.5" ry="16.5" style="fill-rule:evenodd;fill:#b8e986"/><text id="C3'" font-size="12" font-weight="700" style="fill:#979797;font-family:'Source Code Pro';font-size:12px;font-weight:700;text-anchor:middle"><tspan id="tspan7622" x="44.5" y="21" style="fill:gray">33009</tspan></text></g></g><path id="path7627" d="m342 131h45v1h-45v4l-9-4.5 9-4.5z" style="fill:#8f8981"/><g id="g7635" transform="translate(363,115)" style="fill-rule:evenodd;fill:none"><rect id="rect7629" width="89" height="33" rx="16.5" ry="16.5" style="fill-rule:evenodd;fill:#b8e986"/><text id="text7633" font-size="12" font-weight="700" style="fill:#979797;font-family:'Source Code Pro';font-size:12px;font-weight:700;text-anchor:middle"><tspan id="tspan7631" x="44.5" y="21" style="fill:gray">85127</tspan></text></g><path id="Line-3" d="m216.93 98.65 51.256 32.697-.53782.84306-51.256-32.697-2.1513 3.3722-5.1674-8.6341 10.008 1.0466z" style="fill:#8f8981"/><g id="g7644" transform="translate(244,115)" style="fill-rule:evenodd;fill:none"><rect id="rect7638" width="89" height="33" rx="16.5" ry="16.5" style="fill-rule:evenodd;fill:#b8e986"/><text id="text7642" font-size="12" font-weight="700" style="fill:#979797;font-family:'Source Code Pro';font-size:12px;font-weight:700;text-anchor:middle"><tspan id="tspan7640" x="44.5" y="21" style="fill:gray">e5b0f</tspan></text></g><path id="Line-2" d="m58 9v23h-1v-23h-4l4.5-9 4.5 9z" transform="translate(350,148)" style="fill:#8f8981"/><g id="g7765"><rect id="Rectangle-2" width="116" height="38" transform="matrix(.76724 0 0 1 363 170)" style="fill-rule:evenodd;fill:#f44d27"/><text id="master" font-size="12" font-weight="700" transform="translate(349.23 171.69)" style="fill-rule:evenodd;fill:#979797;font-family:'Source Code Pro';font-size:12px;font-weight:700;text-anchor:middle"><tspan id="tspan7648" x="58" y="21.515" style="fill:#f0f0f0">featureB</tspan></text></g><path id="path7653" d="m57 52v-43h1v43h4l-4.5 9-4.5-9z" transform="translate(112,6)" style="fill:#8f8981"/><g id="g7744"><rect id="rect7655" width="116" height="38" transform="matrix(.76724 0 0 1 125 6)" style="fill-rule:evenodd;fill:#f44d27"/><text id="text7659" font-size="12" font-weight="700" transform="translate(111.6 7.3008)" style="fill-rule:evenodd;fill:#979797;font-family:'Source Code Pro';font-size:12px;font-weight:700;text-anchor:middle"><tspan id="tspan7657" x="58" y="21.515" style="fill:#f0f0f0">master</tspan></text></g><path id="path7664" d="m57 52v-43h1v43h4l-4.5 9-4.5-9z" transform="translate(231,6)" style="fill:#8f8981"/><rect id="rect7666" width="116" height="38" transform="matrix(.76724 0 0 1 244 6)" style="fill-rule:evenodd;fill:#f44d27"/><text id="text7670" font-size="12" font-weight="700" transform="translate(230.06 7.6908)" style="fill-rule:evenodd;fill:#979797;font-family:'Source Code Pro';font-size:12px;font-weight:700;text-anchor:middle"><tspan id="tspan7668" x="58" y="21.515" style="fill:#f0f0f0">featureA</tspan></text></g></svg>