<svg xmlns="http://www.w3.org/2000/svg" id="svg16842" version="1.1" viewBox="0 0 530.4 290.03"><metadata id="metadata16846"/><title id="title16761">images/rerere3</title><desc id="desc16763">Created with Sketch.</desc><defs id="defs16769"><marker id="TriangleOutL" orient="auto" style="overflow:visible"><path id="path17724" d="m5.77 0-8.65 5v-10z" transform="scale(.8)" style="fill-rule:evenodd;fill:#4a90e2;stroke-width:1pt;stroke:#4a90e2"/></marker></defs><g id="layer13" transform="translate(-12.001 -20.987)" style="display:none"><path id="Line-7" d="m272 77v-29h1v29h4l-4.5 9-4.5-9z" style="fill:#8f8981"/><path id="Line" d="m178 109h42v1h-42v4l-9-4.5 9-4.5z" style="fill:#8f8981"/><path id="Line-4" d="m331 110h42v1h-42v4l-9-4.5 9-4.5z" transform="translate(1)" style="fill:#8f8981"/><path id="Line-3" d="m426 77v-30h1v30h4l-4.5 9-4.5-9z" style="fill:#8f8981"/><path id="Line-2" d="m25 109h50v1h-50v4l-9-4.5 9-4.5z" style="fill:#8f8981"/><g id="ref" transform="translate(228,18)" style="fill-rule:evenodd;fill:none"><rect id="Rectangle-2" width="106" height="33" style="fill-rule:evenodd;fill:#f44d27"/><text id="master" font-size="12" font-weight="700" style="fill:#979797;font-family:'Source Code Pro';font-size:12px;font-weight:700;text-anchor:middle"><tspan id="tspan16777" x="53" y="20" style="fill:#f0f0f0">master</tspan></text></g><g id="content" transform="translate(67,86)" style="fill-rule:evenodd;fill:none"><rect id="rect16781" width="102" height="47" style="fill-rule:evenodd;fill:#efefe7"/><text id="text16785" font-size="12" font-weight="700" style="fill:#979797;font-family:'Source Code Pro';font-size:12px;font-weight:700;text-anchor:middle"><tspan id="tspan16783" x="51" y="28" style="fill:gray">hello world</tspan></text></g><g id="g16794" transform="translate(221,86)" style="fill-rule:evenodd;fill:none"><rect id="rect16788" width="102" height="47" style="fill-rule:evenodd;fill:#efefe7"/><text id="text16792" font-size="12" font-weight="700" style="fill:#979797;font-family:'Source Code Pro';font-size:12px;font-weight:700;text-anchor:middle"><tspan id="tspan16790" x="51" y="28" style="fill:gray">hola world</tspan></text></g><g id="g16802" transform="translate(373,86)" style="fill-rule:evenodd;fill:none"><rect id="rect16796" width="102" height="47" style="fill-rule:evenodd;fill:#efefe7"/><text id="text16800" font-size="12" font-weight="700" style="fill:#979797;font-family:'Source Code Pro';font-size:12px;font-weight:700;text-anchor:middle"><tspan id="tspan16798" x="51" y="28" style="fill:gray">hola mundo</tspan></text></g><g id="g16810" transform="translate(220,148)" style="fill-rule:evenodd;fill:none"><rect id="rect16804" width="102" height="47" style="fill-rule:evenodd;fill:#efefe8;opacity:.8"/><text id="text16808" font-size="12" font-weight="700" transform="translate(-.15234 -.366)" style="fill:#ababab;font-family:'Source Code Pro';font-size:12px;font-weight:700;text-anchor:middle"><tspan id="tspan16806" x="51" y="28" style="fill:#ababab">hello mundo</tspan></text></g><path id="Line-8" d="m175.98 126.03 44.229 42.46-.69253.72139-44.229-42.46-2.7701 2.8855-3.3761-9.479 9.6089 2.9865-2.7701 2.8855z" style="fill:#e7e7e7"/><g id="g16819" transform="translate(383,16)" style="fill-rule:evenodd;fill:none"><rect id="rect16813" width="106" height="33" style="fill-rule:evenodd;fill:#f44d27"/><text id="text16817" font-size="12" font-weight="700" style="fill:#979797;font-family:'Source Code Pro';font-size:12px;font-weight:700;text-anchor:middle"><tspan id="tspan16815" x="53" y="20" style="fill:#f0f0f0">i18-world</tspan></text></g><rect id="Rectangle-7" width="191" height="111" x="388.5" y="205.5" rx="1" ry="1" style="fill-rule:evenodd;fill:#d8d8d8;stroke:#979797"/><text id="rerere-cache" font-size="12" font-weight="700" transform="translate(344.24,1.4837)" style="fill-rule:evenodd;fill:#000;font-family:'Source Code Pro';font-size:12px;font-weight:700;text-anchor:middle"><tspan id="tspan16822" x="95.5" y="228" style="fill:#000">rerere cache</tspan></text><rect id="Rectangle-8" width="178" height="64" x="394.5" y="243.5" rx="1" ry="1" style="fill-rule:evenodd;fill:#e7e7e7;stroke:#979797"/><g id="g16225"><text id="text16296" x="388.828" y="352.834" transform="translate(12.195,-87.793)" xml:space="preserve" style="fill:#f44d27;font-family:'Source Code Pro';font-feature-settings:normal;font-size:12px;font-variant-caps:normal;font-variant-ligatures:normal;font-variant-numeric:normal;font-weight:700;letter-spacing:0;line-height:9.5px;word-spacing:0"><tspan id="tspan16294" x="388.828" y="352.834" style="fill:#f44d27;line-height:13.33333302px"><tspan id="tspan16302" style="fill:#cc003d">- puts ‘hola world’</tspan> </tspan><tspan id="tspan16298" x="388.828" y="366.167" style="fill:#f44d27;line-height:13.33333302px">- puts ‘hello mundo’ </tspan><tspan id="tspan16300" x="388.828" y="379.5" style="fill:green;line-height:13.33333302px">++ puts ‘hola mundo’</tspan></text></g></g><g id="layer15" transform="translate(-12.001 -20.987)"><g id="g16752"><g id="g15992" transform="translate(.00093 .12199)"><path id="Line-2-6" d="m25 109h50v1h-50v4l-9-4.5 9-4.5z" style="fill:#8f8981"/><g id="content-2" transform="translate(67,86)" style="fill-rule:evenodd;fill:none"><rect id="rect16157" width="102" height="47" style="fill-rule:evenodd;fill:#efefe7"/><text id="text16161" font-size="12" font-weight="700" style="fill:#979797;font-family:'Source Code Pro';font-size:12px;font-weight:700;text-anchor:middle"><tspan id="tspan16159" x="51" y="28" style="fill:gray">hello world</tspan></text></g></g><g id="g16695"><path id="Line-1" d="m178 109h42v1h-42v4l-9-4.5 9-4.5z" transform="translate(.00093 .12199)" style="fill:#8f8981"/><g id="g16170" transform="translate(219.87 86.118)" style="fill-rule:evenodd;fill:none"><rect id="rect16164" width="102" height="47" style="fill-rule:evenodd;fill:#efefe7"/><text id="text16168" font-size="12" font-weight="700" style="fill:#979797;font-family:'Source Code Pro';font-size:12px;font-weight:700;text-anchor:middle"><tspan id="tspan16166" x="51" y="28" style="fill:gray">hola world</tspan></text></g></g><g id="g15378" transform="translate(-66.629 6.9962)"><path id="Line-7-1" d="m337 70v-29h1v29h4l-4.5 9-4.5-9z" style="fill:#8f8981"/><g id="g15371"><rect id="Rectangle-2-5" width="106" height="33" transform="matrix(.83962 0 0 1 293 18)" style="fill-rule:evenodd;fill:#f44d27"/><text id="master-4" font-size="12" font-weight="700" transform="translate(284.6,18.316)" style="fill-rule:evenodd;fill:#979797;font-family:'Source Code Pro';font-size:12px;font-weight:700;text-anchor:middle"><tspan id="tspan15969" x="53" y="20" style="fill:#f0f0f0">master</tspan></text></g></g><g id="g16675"><g id="g16668"><path id="path17580" d="m325.18 173.33c23.206-3.0421 27.716-27.21 48.486-45.373" transform="matrix(1 0 0 1.0255 -4.8765 -6.0727)" style="fill:none;marker-end:url(#TriangleOutL);stroke-width:1px;stroke:#4a90e2"/><rect id="rect16664" width="2.803" height="5.53" x="325.46" y="152.86" transform="translate(-6.3638 15.985)" style="fill-rule:evenodd;fill:#fff"/></g><text id="rebase" font-size="12" font-weight="700" transform="translate(271.15,5.2942)" style="fill-rule:evenodd;fill:#4a90e2;font-family:'Source Code Pro';font-size:12px;font-weight:700;text-anchor:middle"><tspan id="tspan16838" x="95.5" y="164" style="fill:#4a90e2">rebase</tspan></text></g><g id="g16660" style="opacity:.5"><g id="g16186" transform="translate(219.9 148.12)" style="fill-rule:evenodd;fill:none"><rect id="rect16180" width="102" height="47" style="fill-rule:evenodd;fill:#efefe7"/><text id="text16184" font-size="12" font-weight="700" style="fill:#979797;font-family:'Source Code Pro';font-size:12px;font-weight:700;text-anchor:middle"><tspan id="tspan16182" x="51" y="28" style="fill:gray">hello mundo</tspan></text></g><g id="g16002" transform="matrix(1.0388 0 0 1.0388 -6.7106 -3.4531)"><path id="Line-8-3" d="m175.98 126.03 43.681 43.204-.69253.72139-43.681-43.204-2.7701 2.8855-3.3761-9.479 9.6089 2.9865-2.7701 2.8855z" style="fill:#8f8981"/></g></g><g id="g16688"><path id="Line-4-6" d="m331.94 110h43.949v1h-43.949v4l-9-4.5 9-4.5z" transform="translate(-1.0991 .12199)" style="fill:#8f8981"/><g id="g16178" transform="translate(373 86.118)" style="fill-rule:evenodd;fill:none"><rect id="rect16172" width="102" height="47" style="fill-rule:evenodd;fill:#efefe7"/><text id="text16176" font-size="12" font-weight="700" style="fill:#979797;font-family:'Source Code Pro';font-size:12px;font-weight:700;text-anchor:middle"><tspan id="tspan16174" x="51" y="28" style="fill:gray">hola mundo</tspan></text></g></g><g id="g16350" transform="translate(-37.6 15.013)" style="fill-rule:evenodd;fill:none"><g id="g16337"><rect id="Rectangle-7-9" width="191" height="111" x="384.5" y="180.5" rx="1" ry="1" style="fill:#d8d8d8;stroke:#979797"/><text id="rerere-cache-9" font-size="12" font-weight="700" transform="translate(296.51 .44153)" style="fill:#404040;font-family:'Source Code Pro';font-feature-settings:normal;font-size:12px;font-variant-caps:normal;font-variant-ligatures:normal;font-variant-numeric:normal;font-weight:700"><tspan id="tspan16198" x="95.5" y="203" style="fill:#404040;font-family:'Source Code Pro';font-feature-settings:normal;font-size:12px;font-variant-caps:normal;font-variant-ligatures:normal;font-variant-numeric:normal;font-weight:700">rerere cache</tspan></text></g><g id="g16332"><rect id="Rectangle-8-0" width="178" height="64" x="390.5" y="218.5" rx="1" ry="1" style="fill:#e7e7e7;stroke:#979797"/><text id="text16296-0" x="388.828" y="352.834" transform="translate(8.512,-110.66)" xml:space="preserve" style="fill:#f44d27;font-family:'Source Code Pro';font-feature-settings:normal;font-size:12px;font-variant-caps:normal;font-variant-ligatures:normal;font-variant-numeric:normal;font-weight:700;letter-spacing:0;line-height:9.5px;word-spacing:0"><tspan id="tspan16294-7" x="388.828" y="352.834" style="fill:#f44d27;line-height:13.33333302px"><tspan id="tspan16302-4" style="fill:#cc003d">- puts ‘hola world’</tspan> </tspan><tspan id="tspan16298-1" x="388.828" y="366.167" style="fill:#f44d27;line-height:13.33333302px">- puts ‘hello mundo’ </tspan><tspan id="tspan16300-2" x="388.828" y="379.5" style="fill:green;line-height:13.33333302px">++ puts ‘hola mundo’</tspan></text></g></g><g id="g16579" transform="translate(-10.392)"><path id="Line-3-1" d="m338 197v20.577h-1v-20.577h-4l4.5-9 4.5 9z" transform="matrix(1 0 0 -1 96.893 274)" style="fill:#8f8981"/><g id="g15336" transform="translate(95.893 -190.01)"><rect id="rect15997" width="106" height="33" transform="matrix(.83962 0 0 1 294 215)" style="fill-rule:evenodd;fill:#f44d27"/><text id="text16001" font-size="12" font-weight="700" transform="translate(285.46,215.96)" style="fill-rule:evenodd;fill:#979797;font-family:'Source Code Pro';font-size:12px;font-weight:700;text-anchor:middle"><tspan id="tspan15999" x="53" y="20" style="fill:#f0f0f0">i18-world</tspan></text></g></g></g></g></svg>