<svg xmlns="http://www.w3.org/2000/svg" id="svg26420" version="1.1" viewBox="0 0 401 221"><metadata id="metadata26426"/><title id="title26380">images/reset-workflow</title><desc id="desc26382">Created with Sketch.</desc><g id="layer9"><g id="g26824"><path style="fill-rule:evenodd;fill:#8f8981;stroke-linecap:square;stroke:#8f8981" id="Line-6" d="m59.5 26.411v184.08" transform="translate(-.73832)"/><path style="fill-rule:evenodd;fill:#8f8981;stroke-linecap:square;stroke:#8f8981" id="Line-3" d="m339.5 26.411v184.08" transform="translate(.73831)"/><path style="fill-rule:evenodd;fill:#8f8981;stroke-linecap:square;stroke:#8f8981" id="Line-2" d="m199.5 26.411v184.08" transform="translate(4.3213e-6)"/><g style="fill-rule:evenodd;fill:none" id="symref-(2-line)" transform="translate(144.21 4)"><rect style="fill:#00909a" id="rect26394" width="110.58" height="38"/><text style="fill:#979797;font-family:'Source Code Pro';font-size:12px;font-weight:700;text-anchor:middle" id="text26398" font-size="12" font-weight="700" transform="translate(-.21834 2.134)"><tspan style="fill:#f0f0f0" id="tspan26396" x="55.29" y="21">Index</tspan></text></g><g style="fill-rule:evenodd;fill:none" id="other-(2-line)" transform="translate(284.95 4)"><rect style="fill:#efefe7" id="rect26401" width="110.58" height="38"/><text style="fill:#979797;font-family:'Source Code Pro';font-size:12px;font-weight:700;text-anchor:middle" id="master-4" font-size="12" font-weight="700" transform="translate(-.17034 .88075)"><tspan style="fill:gray" id="tspan26403" x="55.29" y="22.031">HEAD</tspan></text></g><g id="g26534"><rect style="fill-rule:evenodd;fill:#f44d27" id="Rectangle-2" width="110.58" height="38" transform="translate(3.4716 4)"/><text style="fill:#f0f0f0;font-family:'Source Code Pro';font-feature-settings:normal;font-size:12px;font-variant-caps:normal;font-variant-ligatures:normal;font-variant-numeric:normal;font-weight:700;letter-spacing:0;line-height:13px;text-align:center;text-anchor:middle;word-spacing:0" id="text26522" x="174.272" y="251.891" transform="translate(-115.76 -232.02)" xml:space="preserve"><tspan id="tspan26520" x="174.272" y="251.891">Working</tspan><tspan id="tspan26524" x="174.272" y="264.891">Directory</tspan></text></g><g id="g26748" transform="matrix(1.0024 0 0 1 447.67 .97114)"><path style="fill:#8f8981" id="path1174" d="m122.38 70.5h216.95v21.875h-216.95v6.447l-63.25-17.319 63.25-17.525z" transform="translate(-446.63 .00562)"/><text style="fill-rule:evenodd;fill:#f0f0f0;font-family:'Source Code Pro';font-size:12px;font-weight:700" id="Checkout-the-project-2" transform="translate(-446.63 -1.1023)"><tspan style="fill:#f0f0f0" id="tspan1182" x="139.632" y="86">Checkout the project</tspan></text></g><g id="g26758" transform="matrix(.99606 0 0 1 445.92 .70429)"><path style="fill:#8f8981" id="path1178" d="m277.32 190.61h-78.112v-21.858h78.112v-6.5386l62.68 17.785-62.68 17.087z" transform="translate(-446.63 .00562)"/><text style="fill-rule:evenodd;fill:#f0f0f0;font-family:'Source Code Pro';font-size:12px;font-weight:700" id="Commit-3" transform="translate(-446.63 -1.129)"><tspan style="fill:#f0f0f0" id="tspan1188" x="221.94" y="184.17">Commit</tspan></text></g><g id="g26778"><path style="fill:#8f8981" id="path1176" d="m137 144.38h-77.875v-21.75h77.875v-6.5l62.209 17.293-62.209 17.457z" transform="translate(-.23052 .4411)"/><text style="fill-rule:evenodd;fill:#f0f0f0;font-family:'Source Code Pro';font-size:12px;font-weight:700" id="Stage-Files" font-size="12" font-weight="700" transform="translate(.070302 -.70408)"><tspan style="fill:#f0f0f0" id="tspan26413" x="70.723" y="138">Stage Files</tspan></text></g></g></g></svg>