<svg xmlns="http://www.w3.org/2000/svg" id="svg19846" version="1.1" viewBox="0 0 691.9 152.97"><metadata id="metadata19852"/><title id="title19756">images/small-team-4</title><desc id="desc19758">Created with Sketch.</desc><g id="g20182" transform="translate(-2.1 -5.9793)"><g id="g20009"><rect id="Rectangle-1" width="89" height="33" rx="16.5" ry="16.5" transform="translate(6.1,66)" style="fill-rule:evenodd;fill:#efefe7"/><text id="C6" font-size="12" font-weight="700" transform="translate(6.2477 65.634)" style="fill-rule:evenodd;fill:#979797;font-family:'Source Code Pro';font-size:12px;font-weight:700;text-anchor:middle"><tspan id="tspan19761" x="44.5" y="21" style="fill:gray">4b078</tspan></text></g><g id="g20001"><path id="Line" d="m9 16h45v1h-45v4l-9-4.5 9-4.5z" transform="translate(95.025 65.978)" style="fill:#8f8981"/><g id="g19980"><rect id="rect19766" width="89" height="33" rx="16.5" ry="16.5" transform="translate(125.03 65.978)" style="fill-rule:evenodd;fill:#efefe7"/><text id="text19770" font-size="12" font-weight="700" transform="translate(124.87 65.612)" style="fill-rule:evenodd;fill:#979797;font-family:'Source Code Pro';font-size:12px;font-weight:700;text-anchor:middle"><tspan id="tspan19768" x="44.5" y="21" style="fill:gray">1edee</tspan></text></g></g><g id="g20129"><path id="path19775" d="m9 16h45v1h-45v4l-9-4.5 9-4.5z" transform="translate(214,66)" style="fill:#8f8981"/><g id="g19957"><rect id="rect19777" width="89" height="33" rx="16.5" ry="16.5" transform="translate(244,66)" style="fill-rule:evenodd;fill:#b8e986"/><text id="C3'" font-size="12" font-weight="700" transform="translate(243.91 65.706)" style="fill-rule:evenodd;fill:#979797;font-family:'Source Code Pro';font-size:12px;font-weight:700;text-anchor:middle"><tspan id="tspan19779" x="44.5" y="21" style="fill:gray">fbff5</tspan></text></g></g><g id="g20033"><path id="path19784" d="m9 16h45v1h-45v4l-9-4.5 9-4.5z" transform="translate(333,66)" style="fill:#8f8981"/><g id="g20026"><rect id="rect19786" width="89" height="33" rx="16.5" ry="16.5" transform="translate(363,66)" style="fill-rule:evenodd;fill:#b8e986"/><text id="text19790" font-size="12" font-weight="700" transform="translate(363.02 65.31)" style="fill-rule:evenodd;fill:#979797;font-family:'Source Code Pro';font-size:12px;font-weight:700;text-anchor:middle"><tspan id="tspan19788" x="44.5" y="21" style="fill:gray">8149a</tspan></text></g></g><g id="g20057"><path id="path19795" d="m9 16h45v1h-45v4l-9-4.5 9-4.5z" transform="translate(452,66)" style="fill:#8f8981"/><g id="g20050"><rect id="rect19797" width="89" height="33" rx="16.5" ry="16.5" transform="translate(482,66)" style="fill-rule:evenodd;fill:#b8e986"/><text id="text19801" font-size="12" font-weight="700" transform="translate(482.02 65.31)" style="fill-rule:evenodd;fill:#979797;font-family:'Source Code Pro';font-size:12px;font-weight:700;text-anchor:middle"><tspan id="tspan19799" x="44.5" y="21" style="fill:gray">23ac6</tspan></text></g></g><g id="g20076"><path id="path19806" d="m580 82h45v1h-45v4l-9-4.5 9-4.5z" style="fill:#8f8981"/><g id="g20069"><rect id="rect19808" width="89" height="33" rx="16.5" ry="16.5" transform="translate(601,66)" style="fill-rule:evenodd;fill:#b8e986"/><text id="text19812" font-size="12" font-weight="700" transform="translate(601.18 65.706)" style="fill-rule:evenodd;fill:#979797;font-family:'Source Code Pro';font-size:12px;font-weight:700;text-anchor:middle"><tspan id="tspan19810" x="44.5" y="21" style="fill:gray">4af42</tspan></text></g></g><g id="g20117" transform="translate(1)"><path id="Line-2" d="m58 9v23h-1v-23h-4l4.5-9 4.5 9z" transform="translate(230,99)" style="fill:#8f8981"/><g id="g19944" transform="translate(-.47234 -.8)"><rect id="Rectangle-2" width="116" height="38" transform="matrix(.86207 0 0 .86842 237.97 122.75)" style="fill-rule:evenodd;fill:#f44d27"/><text id="master" font-size="12" font-weight="700" transform="translate(230,121)" style="fill-rule:evenodd;fill:#979797;font-family:'Source Code Pro';font-size:12px;font-weight:700;text-anchor:middle"><tspan id="tspan19818" x="58" y="21.515" style="fill:#f0f0f0">origin/master</tspan></text></g></g><path id="path19823" d="m57 52v-43h1v43h4l-4.5 9-4.5-9z" transform="translate(231,5)" style="fill:#8f8981"/><g id="g19916" transform="translate(14)"><rect id="rect19825" width="116" height="38" transform="matrix(.76724 0 0 .86842 230 10)" style="fill-rule:evenodd;fill:#f44d27"/><text id="text19829" font-size="12" font-weight="700" transform="translate(216.6 8.8008)" style="fill-rule:evenodd;fill:#979797;font-family:'Source Code Pro';font-size:12px;font-weight:700;text-anchor:middle"><tspan id="tspan19827" x="58" y="21.515" style="fill:#f0f0f0">master</tspan></text></g><g id="g20091"><path id="path19834" d="m57 52v-43h1v43h4l-4.5 9-4.5-9z" transform="translate(588,5)" style="fill:#8f8981"/><g id="g20084" transform="translate(-.72434 4.4222)"><rect id="rect19836" width="116" height="38" transform="matrix(.76724 0 0 .86842 601.72 5.5572)" style="fill-rule:evenodd;fill:#f44d27"/><text id="text19840" font-size="12" font-weight="700" transform="translate(588,5)" style="fill-rule:evenodd;fill:#979797;font-family:'Source Code Pro';font-size:12px;font-weight:700;text-anchor:middle"><tspan id="tspan19838" x="58" y="21.515" style="fill:#f0f0f0">issue54</tspan></text></g></g></g></svg>