<svg xmlns="http://www.w3.org/2000/svg" xmlns:svg="http://www.w3.org/2000/svg" id="svg22466" version="1.1" viewBox="0 0 433.23 546"><metadata id="metadata22472"/><title id="title22360">images/small-team-flow</title><desc id="desc22362">Created with Sketch.</desc><g id="g22658" transform="translate(-4.1186,-6)"><path id="Line" d="m 104.5,43.5 v 490" transform="matrix(1,0,0,1.009,0,-4.823)" style="fill:#8f8981;fill-rule:evenodd;stroke:#8f8981;stroke-linecap:square"/><g id="g22559" transform="translate(-1)"><rect id="Rectangle-2" width="106" height="33" x="0" y="0" transform="matrix(0.83962,0,0,1,177,10)" style="fill:#f44d27;fill-rule:evenodd"/><text id="master" font-size="12" font-weight="700" transform="translate(168.51,10.412)" style="font-weight:700;font-size:12px;font-family:'Source Code Pro';text-anchor:middle;fill:#979797;fill-rule:evenodd"><tspan id="tspan22365" x="53" y="20" style="fill:#f0f0f0">Server</tspan></text></g><g id="g22567" transform="translate(-2)"><rect id="rect22369" width="106" height="33" x="0" y="0" transform="matrix(0.83962,0,0,1,292,10)" style="fill:#f44d27;fill-rule:evenodd"/><text id="text22373" font-size="12" font-weight="700" transform="translate(283.5,10.634)" style="font-weight:700;font-size:12px;font-family:'Source Code Pro';text-anchor:middle;fill:#979797;fill-rule:evenodd"><tspan id="tspan22371" x="53" y="20" style="fill:#f0f0f0">John</tspan></text></g><g id="g22551"><rect id="rect22377" width="106" height="33" x="0" y="0" transform="matrix(0.83962,0,0,1,60,10)" style="fill:#f44d27;fill-rule:evenodd"/><text id="text22381" font-size="12" font-weight="700" transform="translate(51.534,10.958)" style="font-weight:700;font-size:12px;font-family:'Source Code Pro';text-anchor:middle;fill:#979797;fill-rule:evenodd"><tspan id="tspan22379" x="53" y="20" style="fill:#f0f0f0">Jessica</tspan></text></g><path id="Line-2" d="m 220.5,43.5 v 490" style="fill:#8f8981;fill-rule:evenodd;stroke:#8f8981;stroke-linecap:square"/><path id="Line-3" d="m 334.5,43.5 v 490" style="fill:#8f8981;fill-rule:evenodd;stroke:#8f8981;stroke-linecap:square"/><path id="path22388" d="m 114,183 h 106 v 1 H 114 v 4 l -9,-4.5 9,-4.5 z" style="fill:#8f8981"/><text id="git-clone" font-size="12" font-weight="700" style="font-weight:700;font-size:12px;font-family:'Source Code Pro';fill:#413932;fill-rule:evenodd"><tspan id="tspan22390" x="242.295" y="79.695">git clone</tspan></text><text id="git-commit" font-size="12" font-weight="700" transform="translate(0,4.5)" style="font-weight:700;font-size:12px;font-family:'Source Code Pro';fill:#413932;fill-rule:evenodd"><tspan id="tspan22393" x="7.495" y="220.195">git commit</tspan></text><text id="text22398" font-size="12" font-weight="700" style="font-weight:700;font-size:12px;font-family:'Source Code Pro';fill:#413932;fill-rule:evenodd"><tspan id="tspan22396" x="140.295" y="179.695">git clone</tspan></text><path id="Line-11" d="m 114,390 h 106 v 1 H 114 v 4 l -9,-4.5 9,-4.5 z" style="fill:#8f8981"/><text id="git-fetch" font-size="12" font-weight="700" style="font-weight:700;font-size:12px;font-family:'Source Code Pro';fill:#413932;fill-rule:evenodd"><tspan id="tspan22401" x="140.292" y="386.695">git fetch</tspan></text><path id="Line-10" d="m 229,364 h 106 v 1 H 229 v 4 l -9,-4.5 9,-4.5 z" style="fill:#8f8981"/><text id="git-push" font-size="12" font-weight="700" style="font-weight:700;font-size:12px;font-family:'Source Code Pro';fill:#413932;fill-rule:evenodd"><tspan id="tspan22405" x="258.596" y="360.695">git push</tspan></text><path id="Line-4" d="M 325.01,84 H 219.99 v -1 h 105.02 v -4 l 9,4.5 -9,4.5 z" style="fill:#8f8981"/><text id="text22411" font-size="12" font-weight="700" style="font-weight:700;font-size:12px;font-family:'Source Code Pro';fill:#413932;fill-rule:evenodd"><tspan id="tspan22409" x="130.596" y="263.695">git push</tspan></text><path id="Line-7" d="M 210.01,268 H 104.99 v -1 h 105.02 v -4 l 9,4.5 -9,4.5 z" style="fill:#8f8981"/><text id="git-push-2" font-size="12" font-weight="700" style="font-weight:700;font-size:12px;font-family:'Source Code Pro';fill:#413932;fill-rule:evenodd"><tspan id="tspan22414" x="130.596" y="456.695">git push</tspan></text><path id="Line-13" d="M 210.01,461 H 104.99 v -1 h 105.02 v -4 l 9,4.5 -9,4.5 z" style="fill:#8f8981"/><text id="text22420" font-size="12" font-weight="700" style="font-weight:700;font-size:12px;font-family:'Source Code Pro';fill:#413932;fill-rule:evenodd"><tspan id="tspan22418" x="242.292" y="286.695">git fetch</tspan></text><path id="Line-8" d="M 325.01,291 H 219.99 v -1 h 105.02 v -4 l 9,4.5 -9,4.5 z" style="fill:#8f8981"/><text id="git-fetch-2" font-size="12" font-weight="700" style="font-weight:700;font-size:12px;font-family:'Source Code Pro';fill:#413932;fill-rule:evenodd"><tspan id="tspan22423" x="242.292" y="477.695">git fetch</tspan></text><path id="Line-14" d="M 325.01,482 H 219.99 v -1 h 105.02 v -4 l 9,4.5 -9,4.5 z" style="fill:#8f8981"/><path id="Line-5" d="m 342.84,144.08 c 10.689,-2.6979 17.581,-8.9528 17.581,-20.08 0,-9.2424 -4.8176,-15.134 -12.902,-18.401 -2.8167,-1.1383 -5.8402,-1.8701 -8.8696,-2.2746 -1.8415,-0.24589 -3.2925,-0.32684 -4.1532,-0.32457 h -0.002 l -0.5,0.003 -0.005,-0.99999 0.49999,-0.003 0.004,-2e-5 c 0.90323,-0.002 2.3985,0.081 4.2882,0.33336 3.107,0.41488 6.21,1.1659 9.112,2.3387 8.4339,3.4084 13.527,9.6368 13.527,19.328 0,11.713 -7.2996,18.295 -18.447,21.077 l 0.54337,4.0202 -9.5216,-3.254 8.3162,-5.665 0.52735,3.9015 z" style="fill:#8f8981"/><text id="git-commit-2" font-size="12" font-weight="700" transform="translate(-2.4995,-6.1)" style="font-weight:700;font-size:12px;font-family:'Source Code Pro';fill:#413932;fill-rule:evenodd"><tspan id="tspan22428" x="364.495" y="120.406">git commit</tspan></text><path id="Line-9" d="m 342.84,345.08 c 10.689,-2.6979 17.581,-8.9528 17.581,-20.08 0,-9.2424 -4.8176,-15.134 -12.902,-18.401 -2.8167,-1.1383 -5.8402,-1.8701 -8.8696,-2.2746 -1.8415,-0.24589 -3.2925,-0.32684 -4.1532,-0.32457 h -0.002 l -0.5,0.003 -0.005,-0.99998 0.49999,-0.003 0.004,-2e-5 c 0.90323,-0.002 2.3985,0.081 4.2882,0.33336 3.107,0.41488 6.21,1.1659 9.112,2.3387 8.4339,3.4084 13.527,9.6368 13.527,19.328 0,11.713 -7.2996,18.295 -18.447,21.077 l 0.54337,4.0202 -9.5216,-3.254 8.3162,-5.665 0.52735,3.9015 z" style="fill:#8f8981"/><text id="git-merge" font-size="12" font-weight="700" transform="translate(-5.8,-6.1)" style="font-weight:700;font-size:12px;font-family:'Source Code Pro';fill:#413932;fill-rule:evenodd"><tspan id="tspan22432" x="367.795" y="321.406">git merge</tspan></text><path id="Line-6" d="m 96.56901,243.08 c -10.689,-2.6979 -17.581,-8.9528 -17.581,-20.08 0,-9.2424 4.8176,-15.134 12.902,-18.401 2.8167,-1.1383 5.8402,-1.8701 8.8696,-2.2746 1.8415,-0.24589 3.2925,-0.32684 4.1532,-0.32457 h 0.002 l 0.49999,0.003 0.005,-0.99999 -0.49999,-0.003 -0.004,-2e-5 c -0.90323,-0.002 -2.3985,0.081 -4.2882,0.33336 -3.1071,0.41488 -6.21,1.1659 -9.112,2.3387 -8.4339,3.4084 -13.527,9.6368 -13.527,19.328 0,11.713 7.2995,18.295 18.447,21.077 l -0.54338,4.0202 9.5216,-3.254 -8.3161,-5.665 -0.52734,3.9015 z" style="fill:#8f8981"/><text id="text22438" font-size="12" font-weight="700" transform="translate(0,4.5)" style="font-weight:700;font-size:12px;font-family:'Source Code Pro';fill:#413932;fill-rule:evenodd"><tspan id="tspan22436" x="10.795" y="418.195">git merge</tspan></text><path id="Line-12" d="m 96.56901,441.08 c -10.689,-2.6979 -17.581,-8.9528 -17.581,-20.08 0,-9.2424 4.8176,-15.134 12.902,-18.401 2.8167,-1.1383 5.8402,-1.8701 8.8696,-2.2746 1.8415,-0.24589 3.2925,-0.32684 4.1532,-0.32457 h 0.002 l 0.49999,0.003 0.005,-0.99998 -0.49999,-0.003 -0.004,-2e-5 c -0.90323,-0.002 -2.3985,0.081 -4.2882,0.33336 -3.1071,0.41488 -6.21,1.1659 -9.112,2.3387 -8.4339,3.4084 -13.527,9.6368 -13.527,19.328 0,11.713 7.2995,18.295 18.447,21.077 l -0.54338,4.0202 9.5216,-3.254 -8.3161,-5.665 -0.52734,3.9015 z" style="fill:#8f8981"/><g id="g22585" transform="translate(-1)"><rect id="rect22441" width="106" height="33" x="0" y="0" transform="matrix(0.83962,0,0,1,177,515)" style="fill:#f44d27;fill-rule:evenodd"/><text id="text22445" font-size="12" font-weight="700" transform="translate(168.51,515.41)" style="font-weight:700;font-size:12px;font-family:'Source Code Pro';text-anchor:middle;fill:#979797;fill-rule:evenodd"><tspan id="tspan22443" x="53" y="20" style="fill:#f0f0f0">Server</tspan></text></g><g id="g22593" transform="translate(-2)"><rect id="rect22449" width="106" height="33" x="0" y="0" transform="matrix(0.83962,0,0,1,292,515)" style="fill:#f44d27;fill-rule:evenodd"/><text id="text22453" font-size="12" font-weight="700" transform="translate(283.5,515.63)" style="font-weight:700;font-size:12px;font-family:'Source Code Pro';text-anchor:middle;fill:#979797;fill-rule:evenodd"><tspan id="tspan22451" x="53" y="20" style="fill:#f0f0f0">John</tspan></text></g><g id="g22577"><rect id="rect22457" width="106" height="33" x="0" y="0" transform="matrix(0.83962,0,0,1,62,515)" style="fill:#f44d27;fill-rule:evenodd"/><text id="text22461" font-size="12" font-weight="700" transform="translate(53.534,515.96)" style="font-weight:700;font-size:12px;font-family:'Source Code Pro';text-anchor:middle;fill:#979797;fill-rule:evenodd"><tspan id="tspan22459" x="53" y="20" style="fill:#f0f0f0">Jessica</tspan></text></g></g></svg>