<svg xmlns="http://www.w3.org/2000/svg" id="svg31048" version="1.1" viewBox="0 0 384 163"><metadata id="metadata31054"/><title id="title31002">images/two-branches</title><desc id="desc31004">Created with Sketch.</desc><g id="g23831"><g id="g23756"><path id="Line-7" d="m333 52v-29h1v29h4l-4.5 9-4.5-9z" transform="translate(4,4)" style="fill:#8f8981"/><g id="ref" transform="translate(294,4)" style="fill-rule:evenodd;fill:none"><rect id="Rectangle-2" width="106" height="33" transform="scale(.81132 1)" style="fill-rule:evenodd;fill:#f44d27"/><text id="master" font-size="12" font-weight="700" transform="translate(-9.9003 .316)" style="fill:#979797;font-family:'Source Code Pro';font-size:12px;font-weight:700;text-anchor:middle"><tspan id="tspan31011" x="53" y="20" style="fill:#f0f0f0">master</tspan></text></g></g><g id="g23800"><path id="Line-8" d="m334 102v30h-1v-30h-4l4.5-9 4.5 9z" transform="translate(4,5)" style="fill:#8f8981"/><g id="g31021" transform="translate(294,126)" style="fill-rule:evenodd;fill:none"><rect id="rect31015" width="106" height="33" transform="scale(.81132 1)" style="fill-rule:evenodd;fill:#f44d27"/><text id="text31019" font-size="12" font-weight="700" transform="translate(-10.128 -.236)" style="fill:#979797;font-family:'Source Code Pro';font-size:12px;font-weight:700;text-anchor:middle"><tspan id="tspan31017" x="53" y="20" style="fill:#f0f0f0">testing</tspan></text></g></g><g id="g23763"><path id="Line" d="m240 77h50v1h-50v4l-9-4.5 9-4.5z" transform="translate(4,4)" style="fill:#8f8981"/><g id="other" transform="translate(294,65)" style="fill-rule:evenodd;fill:none"><rect id="rect31023" width="86" height="33" style="fill-rule:evenodd;fill:#efefe7"/><text id="text31027" font-size="12" font-weight="700" style="fill:#979797;font-family:'Source Code Pro';font-size:12px;font-weight:700;text-anchor:middle"><tspan id="tspan31025" x="43" y="21" style="fill:gray">f30ab</tspan></text></g></g><g id="g23774"><g id="g23766"><path id="Line-2" d="m95 77h50v1h-50v4l-9-4.5 9-4.5z" transform="translate(4,4)" style="fill:#8f8981"/></g><g id="g31036" transform="translate(149,65)" style="fill-rule:evenodd;fill:none"><rect id="rect31030" width="86" height="33" style="fill-rule:evenodd;fill:#efefe7"/><text id="text31034" font-size="12" font-weight="700" style="fill:#979797;font-family:'Source Code Pro';font-size:12px;font-weight:700;text-anchor:middle"><tspan id="tspan31032" x="43" y="21" style="fill:gray">34ac2</tspan></text></g></g><g id="g31044" transform="translate(4,65)" style="fill-rule:evenodd;fill:none"><rect id="rect31038" width="86" height="33" style="fill-rule:evenodd;fill:#efefe7"/><text id="text31042" font-size="12" font-weight="700" style="fill:#979797;font-family:'Source Code Pro';font-size:12px;font-weight:700;text-anchor:middle"><tspan id="tspan31040" x="43" y="21" style="fill:gray">98ca9</tspan></text></g></g></svg>