<svg xmlns="http://www.w3.org/2000/svg" id="svg31933" version="1.1" viewBox="0 0 821 265"><metadata id="metadata31939"/><title id="title31804">images/undomerge-revert2</title><desc id="desc31806">Created with Sketch.</desc><g id="07---Undo-Merge-(revert-2)" fill="none" fill-rule="evenodd"><g id="brown" transform="translate(10 116)"><rect id="Rectangle-1" width="89" height="33" fill="#EFEFE7" fill-rule="evenodd" rx="16.5"/><text id="C6" fill="#979797" font-family="Source Code Pro" font-size="12" font-weight="700" text-anchor="middle"><tspan id="tspan31809" x="44.5" y="21" fill="gray">C1</tspan></text></g><path id="Line-2" fill="#8F8981" fill-rule="nonzero" d="m457.76 168.72 43.814-35.927.63408.77327-43.814 35.927 2.5363 3.0931-9.8128 2.227 4.1061-9.1864 2.5363 3.0931z"/><path id="Line-3" fill="#8F8981" fill-rule="nonzero" d="m219.38 149.52 44.825 36.914-.63571.77193-44.825-36.914-2.5428 3.0877-4.0867-9.1951 9.8081 2.2477-2.5428 3.0877z"/><g id="Line-+-brown-2" transform="translate(99 116)"><path id="Line" fill="#8F8981" fill-rule="nonzero" d="m9 17h37v1h-37v4l-9-4.5 9-4.5v4z"/><g id="g31822" transform="translate(30)"><rect id="rect31816" width="89" height="33" fill="#EFEFE7" fill-rule="evenodd" rx="16.5"/><text id="text31820" fill="#979797" font-family="Source Code Pro" font-size="12" font-weight="700" text-anchor="middle"><tspan id="tspan31818" x="44.5" y="21" fill="gray">C2</tspan></text></g></g><g id="Line-+-brown-3" transform="translate(218 116)"><path id="path31825" fill="#8F8981" fill-rule="nonzero" d="m9 17h37v1h-37v4l-9-4.5 9-4.5v4z"/><g id="g31833" transform="translate(30)"><rect id="rect31827" width="89" height="33" fill="#EFEFE7" fill-rule="evenodd" rx="16.5"/><text id="text31831" fill="#979797" font-family="Source Code Pro" font-size="12" font-weight="700" text-anchor="middle"><tspan id="tspan31829" x="44.5" y="21" fill="gray">C5</tspan></text></g></g><g id="g31842" transform="translate(248 169)"><rect id="rect31836" width="89" height="33" fill="#EFEFE7" fill-rule="evenodd" rx="16.5"/><text id="text31840" fill="#979797" font-family="Source Code Pro" font-size="12" font-weight="700" text-anchor="middle"><tspan id="tspan31838" x="44.5" y="21" fill="gray">C3</tspan></text></g><path id="Line-6" fill="#8F8981" fill-rule="nonzero" d="m346 186h37v1h-37v4l-9-4.5 9-4.5v4z"/><g id="g31851" transform="translate(367 169)"><rect id="rect31845" width="89" height="33" fill="#EFEFE7" fill-rule="evenodd" rx="16.5"/><text id="text31849" fill="#979797" font-family="Source Code Pro" font-size="12" font-weight="700" text-anchor="middle"><tspan id="tspan31847" x="44.5" y="21" fill="gray">C4</tspan></text></g><g id="Line-+-brown-4" transform="translate(337 116)"><path id="path31853" fill="#8F8981" fill-rule="nonzero" d="m9 17h37v1h-37v4l-9-4.5 9-4.5v4z"/><g id="g31861" transform="translate(30)"><rect id="rect31855" width="89" height="33" fill="#EFEFE7" fill-rule="evenodd" rx="16.5"/><text id="text31859" fill="#979797" font-family="Source Code Pro" font-size="12" font-weight="700" text-anchor="middle"><tspan id="tspan31857" x="44.5" y="21" fill="gray">C6</tspan></text></g></g><path id="path31864" fill="#8F8981" fill-rule="nonzero" d="m463 186h37v1h-37v4l-9-4.5 9-4.5v4z"/><g id="g31872" transform="translate(484 169)"><rect id="rect31866" width="89" height="33" fill="#EFEFE7" fill-rule="evenodd" rx="16.5"/><text id="text31870" fill="#979797" font-family="Source Code Pro" font-size="12" font-weight="700" text-anchor="middle"><tspan id="tspan31868" x="44.5" y="21" fill="gray">C7</tspan></text></g><path id="path31874" fill="#8F8981" fill-rule="nonzero" d="m702 133h37v1h-37v4l-9-4.5 9-4.5v4z"/><path id="Line-9" fill="#8F8981" fill-rule="nonzero" d="m581.97 184.58c36.166-1.9651 69.388-5.4402 86.318-10.776 6.5158-2.0535 14.117-5.4582 22.584-10.002 5.074-2.7233 10.386-5.8172 15.865-9.2129 7.586-4.7013 15.112-9.739 22.237-14.777 2.4936-1.7632 4.7588-3.4004 6.7528-4.8695.69769-.51402 1.3116-.97026 1.8363-1.3635.31451-.23567.52921-.3978.63876-.48113l.39795-.30272.60543.7959-.39795.30272c-.11144.084775-.32807.24836-.64453.48549-.52688.3948-1.1429.85266-1.8428 1.3683-1.9991 1.4728-4.2695 3.1138-6.7686 4.8809-7.1403 5.0487-14.683 10.097-22.288 14.81-5.496 3.406-10.825 6.5102-15.919 9.244-8.5172 4.5714-16.172 8.0002-22.756 10.075-17.044 5.3714-50.305 8.8505-86.57 10.821l.19484 3.9981-9.2084-4.0566 8.7703-4.9327.19456 3.9924z"/><g id="g31883" transform="translate(723 116)"><rect id="rect31877" width="89" height="33" fill="#EFEFE7" fill-rule="evenodd" rx="16.5"/><text id="text31881" fill="#979797" font-family="Source Code Pro" font-size="12" font-weight="700" text-anchor="middle"><tspan id="tspan31879" x="44.5" y="21" fill="gray">C8</tspan></text></g><g id="Line-7-+-brown-5" transform="translate(456 116)"><path id="Line-7" fill="#8F8981" fill-rule="nonzero" d="m9 17h37v1h-37v4l-9-4.5 9-4.5v4z"/><g id="g31892" transform="translate(30)"><rect id="rect31886" width="89" height="33" fill="#EFEFE7" fill-rule="evenodd" rx="16.5"/><text id="text31890" fill="#979797" font-family="Source Code Pro" font-size="12" font-weight="700" text-anchor="middle"><tspan id="tspan31888" x="44.5" y="21" fill="gray">M</tspan></text></g></g><path id="Line-8" fill="#8F8981" fill-rule="nonzero" d="m583 133h37v1h-37v4l-9-4.5 9-4.5v4z"/><g id="g31902" transform="translate(604 116)"><rect id="rect31896" width="89" height="33" fill="#EFEFE7" fill-rule="evenodd" rx="16.5"/><text id="text31900" fill="#979797" font-family="Source Code Pro" font-size="12" font-weight="700" text-anchor="middle"><tspan id="tspan31898" x="44.5" y="21" fill="gray">^M</tspan></text></g><g id="Line-4-+-ref-+-Line-4-+-ref-2" transform="translate(725 10)"><g id="Line-4-+-ref" transform="translate(0 53)"><path id="Line-4" fill="#8F8981" fill-rule="nonzero" d="m43 44v-36h1v36h4l-4.5 9-4.5-9h4z"/><g id="ref"><rect id="Rectangle-2" width="85.196" height="33" fill="#F44D27" fill-rule="evenodd"/><text id="master" fill="#979797" font-family="Source Code Pro" font-size="12" font-weight="700" text-anchor="middle"><tspan id="tspan31906" x="42.598" y="20" fill="#f0f0f0">master</tspan></text></g></g><g id="Line-4-+-ref-2"><path id="path31911" fill="#8F8981" fill-rule="nonzero" d="m43 44v-36h1v36h4l-4.5 9-4.5-9h4z"/><g id="symref"><rect id="rect31913" width="86" height="33" fill="#00909A" fill-rule="evenodd"/><text id="text31917" fill="#979797" font-family="Source Code Pro" font-size="12" font-weight="700" text-anchor="middle"><tspan id="tspan31915" x="43" y="20" fill="#f0f0f0">HEAD</tspan></text></g></g></g><g id="Line-5-+-ref-2" transform="translate(485 202)"><path id="Line-5" d="m43 36v-36h1v36h4l-4.5 9-4.5-9z" transform="matrix(1 0 0 -1 -.1 45)" style="fill-rule:nonzero;fill:#8f8981"/><g id="g31929" transform="translate(0 20)"><rect id="rect31923" width="106" height="33" transform="matrix(.83962 0 0 1 -1.1 0)" style="fill-rule:evenodd;fill:#f44d27"/><text id="text31927" font-size="12" font-weight="700" transform="translate(-9.5783 -.074)" style="fill:#979797;font-family:'Source Code Pro';font-size:12px;font-weight:700;text-anchor:middle"><tspan id="tspan31925" x="53" y="20" style="fill:#f0f0f0">topic</tspan></text></g></g></g></svg>