<svg xmlns="http://www.w3.org/2000/svg" id="svg31651" version="1.1" viewBox="0 0 701 265"><metadata id="metadata31657"/><title id="title31542">images/undomerge-revert</title><desc id="desc31544">Created with Sketch.</desc><g id="07---Undo-Merge-(revert-1)" fill="none" fill-rule="evenodd"><g id="brown" transform="translate(10 116)"><rect id="Rectangle-1" width="89" height="33" fill="#EFEFE7" fill-rule="evenodd" rx="16.5"/><text id="C6" fill="#979797" font-family="Source Code Pro" font-size="12" font-weight="700" text-anchor="middle"><tspan id="tspan31547" x="44.5" y="21" fill="gray">C1</tspan></text></g><path id="Line-2" fill="#8F8981" fill-rule="nonzero" d="m457.76 168.72 43.814-35.927.63408.77327-43.814 35.927 2.5363 3.0931-9.8128 2.227 4.1061-9.1864 2.5363 3.0931z"/><path id="Line-3" fill="#8F8981" fill-rule="nonzero" d="m219.38 149.52 44.825 36.914-.63571.77193-44.825-36.914-2.5428 3.0877-4.0867-9.1951 9.8081 2.2477-2.5428 3.0877z"/><g id="Line-+-brown-2" transform="translate(99 116)"><path id="Line" fill="#8F8981" fill-rule="nonzero" d="m9 17h37v1h-37v4l-9-4.5 9-4.5v4z"/><g id="g31560" transform="translate(30)"><rect id="rect31554" width="89" height="33" fill="#EFEFE7" fill-rule="evenodd" rx="16.5"/><text id="text31558" fill="#979797" font-family="Source Code Pro" font-size="12" font-weight="700" text-anchor="middle"><tspan id="tspan31556" x="44.5" y="21" fill="gray">C2</tspan></text></g></g><g id="Line-+-brown-3" transform="translate(218 116)"><path id="path31563" fill="#8F8981" fill-rule="nonzero" d="m9 17h37v1h-37v4l-9-4.5 9-4.5v4z"/><g id="g31571" transform="translate(30)"><rect id="rect31565" width="89" height="33" fill="#EFEFE7" fill-rule="evenodd" rx="16.5"/><text id="text31569" fill="#979797" font-family="Source Code Pro" font-size="12" font-weight="700" text-anchor="middle"><tspan id="tspan31567" x="44.5" y="21" fill="gray">C5</tspan></text></g></g><g id="g31580" transform="translate(248 169)"><rect id="rect31574" width="89" height="33" fill="#EFEFE7" fill-rule="evenodd" rx="16.5"/><text id="text31578" fill="#979797" font-family="Source Code Pro" font-size="12" font-weight="700" text-anchor="middle"><tspan id="tspan31576" x="44.5" y="21" fill="gray">C3</tspan></text></g><path id="Line-6" fill="#8F8981" fill-rule="nonzero" d="m346 186h37v1h-37v4l-9-4.5 9-4.5v4z"/><g id="g31589" transform="translate(367 169)"><rect id="rect31583" width="89" height="33" fill="#EFEFE7" fill-rule="evenodd" rx="16.5"/><text id="text31587" fill="#979797" font-family="Source Code Pro" font-size="12" font-weight="700" text-anchor="middle"><tspan id="tspan31585" x="44.5" y="21" fill="gray">C4</tspan></text></g><g id="Line-+-brown-4" transform="translate(337 116)"><path id="path31591" fill="#8F8981" fill-rule="nonzero" d="m9 17h37v1h-37v4l-9-4.5 9-4.5v4z"/><g id="g31599" transform="translate(30)"><rect id="rect31593" width="89" height="33" fill="#EFEFE7" fill-rule="evenodd" rx="16.5"/><text id="text31597" fill="#979797" font-family="Source Code Pro" font-size="12" font-weight="700" text-anchor="middle"><tspan id="tspan31595" x="44.5" y="21" fill="gray">C6</tspan></text></g></g><g id="Line-7-+-brown-5" transform="translate(456 116)"><path id="Line-7" fill="#8F8981" fill-rule="nonzero" d="m9 17h37v1h-37v4l-9-4.5 9-4.5v4z"/><g id="g31609" transform="translate(30)"><rect id="rect31603" width="89" height="33" fill="#EFEFE7" fill-rule="evenodd" rx="16.5"/><text id="text31607" fill="#979797" font-family="Source Code Pro" font-size="12" font-weight="700" text-anchor="middle"><tspan id="tspan31605" x="44.5" y="21" fill="gray">M</tspan></text></g></g><path id="path31612" fill="#8F8981" fill-rule="nonzero" d="m583 133h37v1h-37v4l-9-4.5 9-4.5v4z"/><g id="g31620" transform="translate(604 116)"><rect id="rect31614" width="89" height="33" fill="#EFEFE7" fill-rule="evenodd" rx="16.5"/><text id="text31618" fill="#979797" font-family="Source Code Pro" font-size="12" font-weight="700" text-anchor="middle"><tspan id="tspan31616" x="44.5" y="21" fill="gray">^M</tspan></text></g><g id="Line-4-+-ref-+-Line-4-+-ref-2" transform="translate(605 10)"><g id="Line-4-+-ref" transform="translate(0 53)"><path id="Line-4" fill="#8F8981" fill-rule="nonzero" d="m43 44v-36h1v36h4l-4.5 9-4.5-9h4z"/><g id="ref"><rect id="Rectangle-2" width="85.196" height="33" fill="#F44D27" fill-rule="evenodd"/><text id="master" fill="#979797" font-family="Source Code Pro" font-size="12" font-weight="700" text-anchor="middle"><tspan id="tspan31624" x="42.598" y="20" fill="#f0f0f0">master</tspan></text></g></g><g id="Line-4-+-ref-2"><path id="path31629" fill="#8F8981" fill-rule="nonzero" d="m43 44v-36h1v36h4l-4.5 9-4.5-9h4z"/><g id="symref"><rect id="rect31631" width="86" height="33" fill="#00909A" fill-rule="evenodd"/><text id="text31635" fill="#979797" font-family="Source Code Pro" font-size="12" font-weight="700" text-anchor="middle"><tspan id="tspan31633" x="43" y="20" fill="#f0f0f0">HEAD</tspan></text></g></g></g><g id="Line-5-+-ref-2" transform="translate(368 202)"><path id="Line-5" d="m43 36v-36h1v36h4l-4.5 9-4.5-9z" transform="matrix(1 0 0 -1 -.5 45)" style="fill-rule:nonzero;fill:#8f8981"/><g id="g31647" transform="translate(0 20)"><rect id="rect31641" width="106" height="33" transform="scale(.81132 1)" style="fill-rule:evenodd;fill:#f44d27"/><text id="text31645" font-size="12" font-weight="700" transform="translate(-9.9783 -.074)" style="fill:#979797;font-family:'Source Code Pro';font-size:12px;font-weight:700;text-anchor:middle"><tspan id="tspan31643" x="53" y="20" style="fill:#f0f0f0">topic</tspan></text></g></g></g></svg>